<svg width="87" height="84" viewBox="0 0 87 84" fill="none" xmlns="http://www.w3.org/2000/svg">
<g filter="url(#filter0_d_127_275)">
<circle cx="44.6477" cy="37.9839" r="36.9839" stroke="#FEFAE0" stroke-width="2"/>
<line x1="34.4789" y1="74.0085" x2="34.9859" y2="23.8212" stroke="#FEFAE0"/>
<path d="M34.9499 22.8258C35.2555 22.56 35.7291 22.6485 35.9182 23.0067C35.9515 23.0698 35.9953 23.1268 36.0477 23.1752L36.7531 23.8263L37.8933 24.9007C38.0243 25.0241 37.8716 25.2331 37.7142 25.1458C37.5639 25.0625 37.4116 25.2521 37.5254 25.3809L38.1637 26.1031C38.3973 26.3673 38.0924 26.7592 37.7788 26.5977L35.8596 25.6091C35.6374 25.4947 35.3719 25.5029 35.1572 25.6308L34.9788 25.7371L33.05 26.8251C32.752 26.9932 32.4556 26.603 32.6976 26.361L33.206 25.7503C33.3801 25.5411 33.1337 25.2468 32.8972 25.3815C32.6468 25.524 32.3991 25.1916 32.6073 24.9924L34.091 23.5728L34.9499 22.8258Z" fill="#FEFAE0"/>
<path d="M34.9169 25.6908C35.2112 25.3965 35.7012 25.445 35.9321 25.7913C35.9723 25.8516 36.0221 25.9048 36.0796 25.9489L39.8198 28.8164C40.3317 29.2088 39.8525 30.007 39.2655 29.7397C38.7559 29.5077 38.2719 30.1067 38.6059 30.5562L38.8768 30.9208C39.337 31.5401 38.5409 32.31 37.9373 31.8294L36.0883 30.3568C35.7357 30.0761 35.2359 30.0761 34.8833 30.3568L33.002 31.8552C32.4033 32.3319 31.6137 31.5683 32.0701 30.954L32.4214 30.4813C32.7348 30.0595 32.2765 29.499 31.8009 29.7222C31.2728 29.9702 30.8142 29.2745 31.2502 28.8869L33.2046 27.1497L34.7254 25.8823L34.9169 25.6908Z" fill="#FEFAE0"/>
<path d="M35.353 27.3472C34.8835 26.9183 35.4563 26.1862 35.9856 26.5386L38.843 28.4413C38.8767 28.4637 38.9122 28.4832 38.9493 28.4994L41.3225 29.5395C41.8881 29.7873 41.589 30.6393 40.9927 30.4793C40.5355 30.3566 40.1801 30.8795 40.4624 31.2595L40.8438 31.7727C41.3479 32.4512 40.4758 33.2945 39.8146 32.768L38.3429 31.596C37.9903 31.3152 37.4905 31.3152 37.138 31.596L36.3914 32.1905C35.6196 32.8051 34.6015 31.8206 35.19 31.0286L35.2523 30.9449C35.5608 30.5297 35.3776 29.9344 34.8891 29.7644L34.0713 29.4799C33.2904 29.2081 33.5745 28.0416 34.3929 28.1593L34.9324 28.2369C35.4341 28.3091 35.7272 27.6892 35.353 27.3472Z" fill="#FEFAE0"/>
<path d="M34.2127 26.3978C34.72 25.9698 35.4287 26.5999 35.0629 27.1538C34.7897 27.5675 35.1336 28.1099 35.6243 28.0393L35.9841 27.9875C36.8688 27.8603 37.1759 29.1213 36.3317 29.415L36.056 29.5109C35.5675 29.6809 35.3844 30.2762 35.6929 30.6914L35.7551 30.7751C36.3436 31.5671 35.3255 32.5516 34.5537 31.937L33.8072 31.3425C33.4546 31.0617 32.9548 31.0617 32.6022 31.3425L30.7622 32.8079C30.1572 33.2896 29.3593 32.518 29.8205 31.8972L30.4715 31.0211C30.7036 30.7087 30.3681 30.292 30.0134 30.4522C29.5892 30.6437 29.2621 30.0475 29.6515 29.7926L32.0515 28.2215L34.2127 26.3978Z" fill="#FEFAE0"/>
<path d="M33.7267 33.8263C34.0409 32.1625 36.4235 32.1625 36.7377 33.8263L36.804 34.1773C36.8447 34.3927 36.9772 34.5796 37.1669 34.6894L40.0243 36.3421C40.5372 36.6388 40.1669 37.4201 39.6125 37.2109C39.1473 37.0354 38.7529 37.5932 39.0734 37.9732L40.023 39.0993C40.6768 39.8746 39.6939 40.9489 38.8636 40.3663L35.9914 38.3507C35.5358 38.031 34.9287 38.031 34.473 38.3507L31.4431 40.4769C30.6368 41.0427 29.6823 39.9995 30.3172 39.2466L31.4078 37.9533C31.704 37.6021 31.3266 37.0906 30.9037 37.27C30.4112 37.4788 30.0474 36.7889 30.4979 36.5004L33.3344 34.6842C33.5016 34.5772 33.6172 34.4059 33.6541 34.2109L33.7267 33.8263Z" fill="#FEFAE0"/>
<path d="M35.6824 33.9812C35.047 33.3081 35.9331 32.2967 36.6839 32.8381L40.4168 35.5303L43.5935 37.8884C43.9707 38.1685 43.6008 38.7486 43.1878 38.5247C42.8203 38.3255 42.4489 38.7816 42.7184 39.1011L44.0519 40.6825C44.6327 41.3713 43.7596 42.3254 43.0221 41.8079L39.5401 39.3645C39.0845 39.0448 38.4774 39.0448 38.0217 39.3645L36.5279 40.4127C35.488 41.1425 34.2567 39.7969 35.0757 38.8257L35.1984 38.6802C35.6417 38.1545 35.4039 37.3468 34.7464 37.1453L34.2346 36.9883C33.1666 36.6609 33.5088 35.0694 34.617 35.2098L35.0315 35.2624C35.7422 35.3525 36.1743 34.5021 35.6824 33.9812Z" fill="#FEFAE0"/>
<path d="M34.092 32.5247C34.9262 31.8158 36.053 32.9515 35.3377 33.7801C34.8064 34.3955 35.3314 35.3397 36.1379 35.2374C37.2605 35.0951 37.6876 36.697 36.6057 37.0287L36.2253 37.1453C35.5679 37.3469 35.33 38.1546 35.7734 38.6803L35.896 38.8258C36.715 39.797 35.4838 41.1426 34.4438 40.4128L32.95 39.3646C32.4944 39.0448 31.8873 39.0448 31.4317 39.3646L27.9997 41.7729C27.2546 42.2957 26.3725 41.3317 26.9593 40.6359L28.5036 38.8044C28.7254 38.5415 28.422 38.1654 28.1181 38.3265C27.7845 38.5032 27.4814 38.0473 27.7735 37.8081L30.555 35.5304L34.092 32.5247Z" fill="#FEFAE0"/>
<path d="M32.6977 42.4688C33.9422 41.086 36.0875 41.0171 37.4182 42.3172L38.8705 43.7361L41.6577 46.8572C41.9022 47.1309 41.5381 47.5214 41.248 47.2966C40.9603 47.0737 40.5971 47.4566 40.8348 47.7321L44.5786 52.0722C45.1885 52.7792 44.4175 53.8228 43.5625 53.4475L35.9669 50.1139C35.3397 49.8386 34.6237 49.8504 34.0059 50.1463L29.4654 52.3209C28.1965 52.9287 27.002 51.3666 27.921 50.3012L30.6648 47.1203C30.9826 46.752 30.5655 46.2133 30.1293 46.4286C29.6823 46.6493 29.2648 46.0824 29.6081 45.721L32.6977 42.4688Z" fill="#FEFAE0"/>
<path d="M35.2735 43.2289C34.3378 41.8227 36.199 40.2495 37.4297 41.4063L41.1084 44.8644L45.5646 49.3206C45.9363 49.6923 45.459 50.2842 45.017 49.9997C44.5911 49.7256 44.1165 50.2717 44.4473 50.6552L46.3584 52.8707C47.0179 53.6353 46.051 54.7154 45.2184 54.1442L40.0802 50.6195C39.4841 50.2106 38.6926 50.2318 38.1193 50.672L36.2053 52.1417C34.8231 53.203 33.0904 51.3647 34.2316 50.0477L34.4823 49.7584C35.0519 49.1011 34.7522 48.0746 33.9191 47.8249C32.513 47.4034 32.9422 45.3056 34.399 45.4861C35.4153 45.612 36.1105 44.4869 35.5432 43.6343L35.2735 43.2289Z" fill="#FEFAE0"/>
<path d="M32.6757 41.3499C33.7711 40.3641 35.2997 41.891 34.3584 43.0248C33.6821 43.8395 34.3459 45.0675 35.3967 44.9373C36.8187 44.7611 37.2485 46.8056 35.876 47.217L35.5341 47.3195C34.7018 47.569 34.403 48.5932 34.9705 49.2511L35.1347 49.4415C36.177 50.6498 34.6489 52.3568 33.333 51.4541L31.3266 50.0777C30.7548 49.6855 30.0007 49.6855 29.429 50.0777L25.0891 53.0549C24.1275 53.7145 23.0109 52.4671 23.7725 51.5842L25.4679 49.6188C25.8038 49.2294 25.3621 48.6601 24.9015 48.8888C24.3827 49.1463 23.9465 48.4223 24.4167 48.084L28.286 45.3L32.6757 41.3499Z" fill="#FEFAE0"/>
<path d="M33.0566 56.3785C33.6371 53.6026 37.6051 53.5822 38.1855 56.3582L38.3013 56.9117C38.3555 57.1713 38.5016 57.4026 38.7126 57.5631L42.4029 60.3713C42.8234 60.6913 42.453 61.3504 41.961 61.1577C41.5096 60.9809 41.1312 61.5381 41.462 61.8925L44.9952 65.6766C46.2278 66.9968 44.7177 69.0441 43.0924 68.2561L36.894 65.2512C36.0915 64.8622 35.1549 64.8622 34.3524 65.2512L26.8527 68.887C25.496 69.5447 24.2353 67.8357 25.2643 66.7336L29.1475 62.5746C29.508 62.1885 29.0455 61.5964 28.5836 61.8529C28.0851 62.1297 27.6237 61.437 28.0712 61.0837L28.3887 60.8331L32.111 57.9043C32.5955 57.5231 32.9305 56.9819 33.0566 56.3785Z" fill="#FEFAE0"/>
<path d="M37.4141 56.4441C36.5397 54.8383 38.6108 53.2202 39.8882 54.5284L44.3045 59.0516L49.2443 63.0868C49.6913 63.4519 49.2052 64.143 48.7105 63.8458C48.2512 63.5698 47.7663 64.1612 48.1268 64.5575L51.0253 67.7437C51.8915 68.6959 50.6939 70.1043 49.6149 69.4024L42.7428 64.9322C42.0292 64.4681 41.1091 64.4681 40.3955 64.9322L37.4827 66.8269C35.8062 67.9175 33.9455 65.7292 35.2913 64.2498L35.5279 63.9898C36.271 63.173 35.8964 61.8598 34.8342 61.558C33.0732 61.0575 33.5963 58.4361 35.4145 58.6498L35.9037 58.7073C37.134 58.8518 38.0064 57.532 37.4141 56.4441Z" fill="#FEFAE0"/>
<path d="M32.2402 53.5811C33.552 52.4349 35.4048 54.1412 34.3702 55.5427C33.6139 56.5673 34.4603 57.9988 35.7253 57.8526C37.5171 57.6454 38.1138 60.2203 36.3768 60.706C35.3227 61.0007 34.9532 62.3058 35.6962 63.1094L35.9392 63.3722C37.2793 64.8215 35.4595 66.9956 33.7969 65.9316L30.6627 63.9257C30.0324 63.5224 29.235 63.4854 28.5701 63.8286L23.0885 66.6585C21.855 67.2953 20.7021 65.6822 21.704 64.7214L24.1264 62.3982C24.4081 62.1281 24.1394 61.6613 23.7644 61.7692C23.3749 61.8813 23.1105 61.3802 23.4228 61.122L26.909 58.2393L32.2402 53.5811Z" fill="#FEFAE0"/>
<line y1="-0.5" x2="27.081" y2="-0.5" transform="matrix(-0.00930627 -0.999957 -0.99994 0.0109625 25.0255 64.4002)" stroke="#FEFAE0"/>
<path d="M25.0519 36.792C24.8985 36.6471 24.6486 36.6928 24.5564 36.8826C24.5412 36.9137 24.521 36.9422 24.4965 36.9667L24.1434 37.3204L23.5666 37.9103C23.5018 37.9766 23.5845 38.0812 23.664 38.0334C23.7399 37.9877 23.8221 38.0824 23.7661 38.1511L23.4414 38.5498C23.3238 38.6942 23.4922 38.8947 23.6548 38.8039L24.571 38.2916C24.6905 38.2249 24.8371 38.2296 24.952 38.3039L25.0255 38.3514L25.964 38.9261C26.1179 39.0203 26.2818 38.8208 26.1596 38.6881L25.897 38.3457C25.8116 38.2344 25.9442 38.0878 26.0635 38.1615C26.1897 38.2395 26.3237 38.0734 26.2208 37.9665L25.4668 37.1836L25.0519 36.792Z" fill="#FEFAE0"/>
<path d="M25.0635 38.3345C24.9179 38.1764 24.6617 38.2013 24.5492 38.3844C24.5307 38.4145 24.5075 38.4413 24.4804 38.4639L22.5751 40.0493C22.3186 40.2628 22.5808 40.6661 22.8801 40.5182C23.14 40.3897 23.401 40.6905 23.2372 40.9298L23.0978 41.1335C22.8686 41.4682 23.3029 41.8562 23.6098 41.591L24.4526 40.8625C24.6368 40.7033 24.9099 40.7033 25.0941 40.8625L25.9539 41.6057C26.2582 41.8687 26.6888 41.4839 26.4616 41.152L26.2802 40.887C26.1272 40.6636 26.3733 40.3835 26.6146 40.5065C26.8822 40.6428 27.1309 40.294 26.9147 40.0854L25.9075 39.1137L25.1514 38.4298L25.0635 38.3345Z" fill="#FEFAE0"/>
<path d="M24.8231 39.2364C25.0617 38.9998 24.7441 38.6255 24.4718 38.8223L23.1069 39.8087C23.0886 39.822 23.0691 39.8335 23.0486 39.8432L21.8285 40.4236C21.535 40.5632 21.7038 41.0068 22.0159 40.9159C22.2541 40.8465 22.448 41.1141 22.3078 41.3188L22.1248 41.5861C21.8733 41.9536 22.3501 42.3796 22.687 42.0883L23.3319 41.531C23.5161 41.3718 23.7892 41.3718 23.9734 41.531L24.2425 41.7636C24.6365 42.1041 25.194 41.606 24.8999 41.1763L24.8772 41.1433C24.726 40.9224 24.8217 40.6182 25.0721 40.5236L25.5195 40.3547C25.9284 40.2002 25.7669 39.588 25.335 39.6555L25.0569 39.6989C24.7959 39.7396 24.6356 39.4224 24.8231 39.2364Z" fill="#FEFAE0"/>
<path d="M25.4583 38.7554C25.2003 38.5191 24.8139 38.8367 24.9957 39.1356C25.1295 39.3554 24.945 39.6311 24.6908 39.5914L24.4995 39.5616C24.0335 39.4888 23.8592 40.1494 24.3005 40.3161L24.488 40.3869C24.7385 40.4815 24.8341 40.7857 24.6829 41.0065L24.6603 41.0396C24.3661 41.4693 24.9237 41.9674 25.3176 41.6269L25.5868 41.3943C25.771 41.2351 26.0441 41.2351 26.2283 41.3943L27.0664 42.1187C27.374 42.3846 27.8093 41.9956 27.5796 41.6602L27.2583 41.1908C27.1438 41.0235 27.3258 40.8131 27.5078 40.9023C27.7256 41.009 27.9065 40.7048 27.7088 40.5644L26.4808 39.6919L25.4583 38.7554Z" fill="#FEFAE0"/>
<path d="M25.6544 42.7524C25.5071 41.906 24.2921 41.906 24.1448 42.7524L24.117 42.9122C24.0975 43.0244 24.0313 43.1231 23.9348 43.1836L22.4747 44.1002C22.2123 44.265 22.4187 44.6666 22.7054 44.5491C22.9455 44.4508 23.1606 44.7341 23.0014 44.9389L22.5325 45.5424C22.2041 45.9651 22.7448 46.511 23.1706 46.1867L24.4914 45.1808C24.7325 44.9971 25.0667 44.9971 25.3078 45.1808L26.7112 46.2496C27.1244 46.5644 27.6491 46.0346 27.3304 45.6244L26.7896 44.9283C26.6428 44.7395 26.8482 44.4806 27.0655 44.5806C27.3189 44.6972 27.5204 44.3446 27.2914 44.1855L25.8445 43.18C25.7603 43.1214 25.703 43.0316 25.6854 42.9305L25.6544 42.7524Z" fill="#FEFAE0"/>
<path d="M24.6536 42.8253C24.9743 42.4567 24.4857 41.9421 24.101 42.2433L22.3222 43.6356L20.7095 44.935C20.5194 45.0881 20.7226 45.382 20.933 45.2582C21.1201 45.1481 21.3217 45.3774 21.1885 45.5489L20.5224 46.4062C20.2315 46.7805 20.7104 47.264 21.0875 46.9768L22.7272 45.7279C22.9684 45.5442 23.3025 45.5442 23.5437 45.7279L24.1476 46.1879C24.6829 46.5956 25.3626 45.9094 24.9497 45.378L24.8996 45.3135C24.6808 45.0319 24.8062 44.6185 25.1446 44.5059L25.4537 44.403C26.0152 44.2162 25.8199 43.3782 25.2336 43.4588L25.0127 43.4892C24.6438 43.54 24.4092 43.1062 24.6536 42.8253Z" fill="#FEFAE0"/>
<path d="M25.5551 42.0955C25.133 41.7062 24.5182 42.2776 24.8757 42.727C25.1369 43.0554 24.864 43.5345 24.4483 43.4774L24.3795 43.4679C23.7858 43.3862 23.588 44.2348 24.1566 44.424L24.4025 44.5058C24.741 44.6185 24.8664 45.0319 24.6475 45.3135L24.5974 45.378C24.1846 45.9094 24.8642 46.5956 25.3995 46.1879L26.0035 45.7279C26.2446 45.5442 26.5788 45.5442 26.8199 45.7279L28.4335 46.9568C28.8146 47.2471 29.2985 46.7585 29.0046 46.3802L28.2341 45.3885C28.1249 45.2479 28.2889 45.0594 28.4432 45.1482C28.6126 45.2456 28.778 45.0159 28.632 44.8862L27.2249 43.6356L25.5551 42.0955Z" fill="#FEFAE0"/>
<path d="M26.1598 47.3795C25.5572 46.6528 24.4544 46.6176 23.8067 47.3044L23.091 48.0633L21.6885 49.7678C21.5686 49.9136 21.7637 50.1067 21.9082 49.9852C22.0515 49.8647 22.246 50.054 22.1296 50.2005L20.2357 52.5834C19.9318 52.9658 20.3536 53.4962 20.7946 53.2861L24.4864 51.5275C24.826 51.3657 25.2219 51.3726 25.5556 51.5461L27.6769 52.6488C28.3377 52.9923 28.9989 52.19 28.5355 51.6069L27.1497 49.8633C26.9942 49.6676 27.2183 49.3991 27.4386 49.5172C27.6644 49.6382 27.8893 49.3554 27.7206 49.1627L26.1598 47.3795Z" fill="#FEFAE0"/>
<path d="M24.8443 47.8461C25.3073 47.091 24.2991 46.3042 23.6791 46.9368L21.9782 48.672L19.7347 51.107C19.5512 51.3062 19.8088 51.601 20.0308 51.446C20.2447 51.2965 20.5 51.5681 20.3376 51.7724L19.3707 52.9889C19.0408 53.404 19.5704 53.9506 19.9957 53.634L22.4481 51.8081C22.7638 51.573 23.1994 51.585 23.5017 51.8369L24.2716 52.4786C24.9774 53.0668 25.9289 52.1351 25.3557 51.4171L25.2509 51.2859C24.9694 50.9332 25.1269 50.4079 25.556 50.2683L25.6398 50.241C26.3789 50.0006 26.1277 48.898 25.3573 49.0016C24.8244 49.0733 24.4471 48.4941 24.7282 48.0356L24.8443 47.8461Z" fill="#FEFAE0"/>
<path d="M26.2879 46.8902C25.7361 46.3513 24.891 47.1002 25.3596 47.7128C25.6963 48.1531 25.3315 48.7805 24.7822 48.7067C24.0298 48.6055 23.7814 49.6819 24.5033 49.9167L24.7452 49.9954C25.1739 50.1348 25.3317 50.6593 25.0512 51.0122L24.9832 51.0978C24.457 51.7598 25.3017 52.6315 25.9799 52.1265L26.802 51.5144C27.1053 51.2886 27.5208 51.2886 27.8242 51.5144L29.8613 53.0312C30.3541 53.3981 30.9678 52.7647 30.5855 52.2837L29.7402 51.2201C29.5739 51.0109 29.8139 50.7241 30.0491 50.8509C30.3142 50.9937 30.5542 50.6261 30.3169 50.4408L28.353 48.9072L26.2879 46.8902Z" fill="#FEFAE0"/>
<path d="M25.9928 54.9453C25.7204 53.5313 23.6933 53.514 23.4209 54.928L23.372 55.1818C23.3461 55.3161 23.2743 55.4372 23.1688 55.5243L21.3031 57.0652C21.092 57.2396 21.2951 57.5737 21.5471 57.4666C21.7782 57.3683 21.9836 57.6494 21.8198 57.8397L20.0543 59.892C19.429 60.6189 20.269 61.674 21.1175 61.2275L24.0109 59.7051C24.4455 59.4764 24.9648 59.4764 25.3994 59.7051L29.3635 61.7909C29.9872 62.1191 30.6046 61.3435 30.145 60.8092C29.6569 60.2419 30.3749 59.4423 30.9913 59.8667L32.0138 60.5707L26.4183 55.6864C26.198 55.494 26.0481 55.2324 25.9928 54.9453Z" fill="#FEFAE0"/>
<path d="M23.7957 54.9585C24.2253 54.1023 23.0962 53.3183 22.4555 54.0305L20.3894 56.3271L17.8961 58.5377C17.6722 58.7362 17.9377 59.0843 18.1884 58.9209C18.421 58.7691 18.684 59.0656 18.5055 59.2785L17.0522 61.0125C16.6172 61.5315 17.2755 62.2467 17.8287 61.8562L21.1144 59.5365C21.495 59.2677 22.0036 59.2677 22.3842 59.5365L23.6091 60.4013C24.476 61.0133 25.5077 59.8924 24.826 59.0791L24.7254 58.959C24.357 58.5195 24.5556 57.8467 25.1036 57.6776C26.0408 57.3885 25.7387 55.9917 24.7657 56.1158L24.6252 56.1338C23.9788 56.2162 23.5035 55.541 23.7957 54.9585Z" fill="#FEFAE0"/>
<path d="M26.5243 53.5055C25.8602 52.8757 24.8516 53.7332 25.3663 54.4899C25.7362 55.0339 25.2851 55.7592 24.6323 55.6773C23.6793 55.5577 23.3991 56.937 24.3181 57.216C24.8622 57.3811 25.0647 58.0519 24.696 58.4847L24.5918 58.607C23.9124 59.4045 24.9223 60.5192 25.7828 59.9215L27.0528 59.0393C27.4284 58.7784 27.9266 58.7784 28.3022 59.0393L30.5527 60.6025C31.2641 61.0967 32.0991 60.1751 31.5374 59.5157L30.3391 58.1092C30.2055 57.9523 30.3601 57.7183 30.5568 57.7797C30.7676 57.8455 30.9197 57.578 30.7554 57.4306L29.0374 55.8888L26.5243 53.5055Z" fill="#FEFAE0"/>
<line y1="-0.5" x2="34.9482" y2="-0.5" transform="matrix(0.0107735 -0.999942 0.999955 0.00946949 15.2489 60.3384)" stroke="#FEFAE0"/>
<path d="M15.2415 24.6841C15.4662 24.5008 15.8018 24.5644 15.944 24.817C15.9705 24.8639 16.0048 24.9059 16.0455 24.9412L16.5667 25.3922L17.4021 26.1302C17.4992 26.216 17.3937 26.3698 17.2786 26.31C17.1688 26.253 17.0631 26.3928 17.148 26.4829L17.6136 26.9767C17.7847 27.1583 17.5769 27.4419 17.3522 27.3334L15.884 26.6244C15.7297 26.5499 15.5487 26.5553 15.399 26.6389L15.2489 26.7227L13.7938 27.4923C13.5796 27.6056 13.3779 27.3229 13.5546 27.1572L13.9207 26.7449C14.0509 26.5983 13.8795 26.3808 13.7065 26.4731C13.5233 26.571 13.3518 26.3259 13.5064 26.1873L14.5895 25.2157L15.2415 24.6841Z" fill="#FEFAE0"/>
<path d="M15.2117 26.6825C15.4306 26.4772 15.7804 26.5122 15.9543 26.7568C15.986 26.8012 16.0247 26.8401 16.069 26.872L18.7951 28.8314C19.1711 29.1017 18.8424 29.6847 18.4165 29.5029C18.0466 29.345 17.7105 29.7852 17.9604 30.1004L18.1558 30.347C18.4958 30.776 17.9482 31.3396 17.5095 31.0121L16.0476 29.9206C15.7973 29.7337 15.4538 29.7337 15.2035 29.9206L13.7185 31.0293C13.2834 31.3542 12.7402 30.7951 13.0775 30.3695L13.3301 30.0507C13.5654 29.7539 13.246 29.3404 12.8994 29.493C12.5144 29.6624 12.1976 29.1511 12.5207 28.8818L13.9312 27.7064L15.0608 26.8239L15.2117 26.6825Z" fill="#FEFAE0"/>
<path d="M15.5086 27.8283C15.1672 27.5359 15.5562 27.0059 15.9376 27.244L18.1217 28.6074C18.1448 28.6219 18.1691 28.6344 18.1943 28.6447L19.9137 29.3511C20.3184 29.5175 20.118 30.126 19.6936 30.0193C19.3669 29.9371 19.122 30.3162 19.3313 30.5802L19.6219 30.9469C19.9937 31.4161 19.3949 32.0324 18.9152 31.6742L17.722 30.7833C17.4717 30.5964 17.1282 30.5964 16.8779 30.7833L16.2059 31.2851C15.6467 31.7026 14.9486 30.9841 15.3821 30.4371L15.4377 30.3669C15.6687 30.0755 15.5384 29.6432 15.1849 29.5279L14.6202 29.3436C14.0647 29.1624 14.2541 28.3339 14.8331 28.412L15.2236 28.4646C15.5826 28.513 15.7837 28.064 15.5086 27.8283Z" fill="#FEFAE0"/>
<path d="M14.7393 27.1358C15.1079 26.8442 15.5957 27.3055 15.325 27.6897C15.1203 27.9804 15.3601 28.3755 15.7124 28.3279L15.9669 28.2936C16.5936 28.2091 16.7986 29.1059 16.1974 29.3021L16.0462 29.3514C15.6927 29.4667 15.5625 29.899 15.7934 30.1904L15.8491 30.2606C16.2826 30.8076 15.5845 31.5261 15.0252 31.1086L14.3532 30.6069C14.1029 30.4199 13.7594 30.4199 13.5091 30.6069L12.0536 31.6936C11.6139 32.0219 11.0651 31.457 11.4059 31.027L11.8918 30.4139C12.0647 30.1957 11.8328 29.8909 11.5764 29.9994C11.2703 30.1289 11.0477 29.6966 11.3311 29.5227L13.0747 28.4527L14.7393 27.1358Z" fill="#FEFAE0"/>
<path d="M14.3266 32.3165C14.5708 31.1045 16.3032 31.1045 16.5473 32.3165L16.6032 32.5936C16.6341 32.7471 16.7316 32.8791 16.8693 32.9537L18.9493 34.0816C19.3203 34.2829 19.0698 34.8463 18.6718 34.7055C18.3372 34.5871 18.0656 34.9935 18.303 35.2574L19.0116 36.0452C19.4915 36.5787 18.8196 37.3602 18.2201 36.9658L15.9646 35.4819C15.6444 35.2712 15.2296 35.2712 14.9093 35.4819L12.5413 37.0398C11.9588 37.423 11.306 36.6637 11.7723 36.1453L12.5836 35.2434C12.8032 34.9992 12.543 34.6256 12.2378 34.7469C11.8829 34.888 11.6357 34.3884 11.9631 34.1918L14.0302 32.951C14.1524 32.8777 14.238 32.7563 14.2662 32.6166L14.3266 32.3165Z" fill="#FEFAE0"/>
<path d="M15.7467 32.4387C15.282 31.9772 15.8865 31.2422 16.429 31.609L19.2878 33.5419L21.4421 35.0663C21.6965 35.2463 21.4676 35.6382 21.1858 35.505C20.9341 35.386 20.701 35.699 20.8873 35.9061L21.9081 37.041C22.3486 37.5308 21.7319 38.2481 21.1816 37.886L18.6004 36.1879C18.2802 35.9772 17.8654 35.9772 17.5452 36.1879L16.2784 37.0213C15.5295 37.514 14.6902 36.5378 15.2897 35.8712L15.3928 35.7567C15.7228 35.3898 15.5548 34.804 15.0806 34.6677L14.7577 34.5749C14.0002 34.3571 14.2277 33.2294 15.0104 33.3224L15.303 33.3571C15.8123 33.4177 16.1107 32.8001 15.7467 32.4387Z" fill="#FEFAE0"/>
<path d="M14.6913 31.3685C15.2998 30.8837 16.0746 31.7159 15.5476 32.2882C15.1512 32.7187 15.5135 33.4089 16.0946 33.3398C16.8876 33.2456 17.1606 34.3831 16.3931 34.6037L16.1703 34.6678C15.696 34.8041 15.5281 35.3898 15.8581 35.7567L15.9612 35.8713C16.5607 36.5379 15.7214 37.5141 14.9725 37.0214L13.7057 36.188C13.3855 35.9773 12.9706 35.9773 12.6504 36.188L9.99523 37.9348C9.45613 38.2895 8.852 37.5868 9.28355 37.107L10.4272 35.8355C10.5924 35.6518 10.3822 35.3751 10.161 35.4851C9.9182 35.6057 9.70985 35.2719 9.92487 35.1068L11.9631 33.542L14.6913 31.3685Z" fill="#FEFAE0"/>
<path d="M13.5545 38.3733C14.4966 37.3919 16.0498 37.342 17.053 38.2609L18.1391 39.2558L20.1893 41.4081C20.3721 41.5999 20.1183 41.8899 19.9039 41.7342C19.6914 41.5799 19.4381 41.8644 19.6159 42.0576L22.3588 45.0387C22.8093 45.5283 22.2799 46.2878 21.6647 46.0347L15.9278 43.6741C15.4943 43.4958 15.0067 43.5035 14.5791 43.6955L11.0545 45.2781C10.1481 45.6851 9.33508 44.5571 10.0078 43.8259L12.0205 41.6385C12.2584 41.3799 11.968 40.9819 11.6492 41.1295C11.3224 41.2807 11.0324 40.8623 11.2887 40.6094L13.5545 38.3733Z" fill="#FEFAE0"/>
<path d="M15.4277 38.8464C14.7328 37.8673 16.0199 36.7089 16.9206 37.5027L19.8013 40.0414L23.0782 43.1136C23.3546 43.3727 23.0236 43.8099 22.6992 43.6142C22.3867 43.4256 22.0566 43.8296 22.3038 44.0982L23.7034 45.6194C24.1889 46.1471 23.526 46.9354 22.9228 46.5475L18.9892 44.0176C18.5705 43.7483 18.0297 43.7625 17.6256 44.0534L15.9963 45.2263C14.995 45.9471 13.8095 44.6074 14.647 43.7012L14.8556 43.4755C15.279 43.0173 15.0688 42.2735 14.4682 42.1047C13.4778 41.8264 13.8322 40.3598 14.854 40.4785C15.5774 40.5625 16.07 39.7513 15.6485 39.1574L15.4277 38.8464Z" fill="#FEFAE0"/>
<path d="M13.673 37.4803C14.4749 36.8039 15.5104 37.9446 14.8149 38.7299C14.3156 39.2938 14.7691 40.1839 15.5172 40.097C16.5214 39.9804 16.8071 41.4289 15.8339 41.7023L15.6556 41.7524C15.0556 41.9211 14.8448 42.6637 15.2668 43.1223L15.4038 43.2711C16.1659 44.0994 15.1253 45.3367 14.1786 44.7278L12.4899 43.6418C12.0888 43.3838 11.574 43.3838 11.1729 43.6418L7.81195 45.8033C7.11721 46.2501 6.35357 45.3421 6.91286 44.7343L8.16887 43.3692C8.41826 43.0982 8.11335 42.6811 7.77941 42.8365C7.40368 43.0113 7.10582 42.4844 7.44939 42.2526L10.2778 40.3447L13.673 37.4803Z" fill="#FEFAE0"/>
<path d="M13.8352 47.9955C14.2857 45.9755 17.1669 45.9663 17.6174 47.9862L17.7144 48.4213C17.7559 48.6073 17.8647 48.7715 18.0199 48.8822L20.7272 50.8137C21.0358 51.0338 20.7821 51.5143 20.4263 51.3836C20.0995 51.2636 19.8382 51.6716 20.0838 51.9182L22.6973 54.5424C23.5954 55.4443 22.5715 56.9187 21.4127 56.392L16.5999 54.2046C16.0455 53.9526 15.4092 53.9526 14.8547 54.2046L9.03789 56.8483C8.08279 57.2824 7.23882 56.0672 7.97913 55.3239C8.74327 54.5566 7.82346 53.3167 6.86753 53.8254L6.08322 54.2428L13.0845 49.1411C13.4656 48.8634 13.7326 48.4556 13.8352 47.9955Z" fill="#FEFAE0"/>
<path d="M17.0346 48.0652C16.3815 46.9406 17.8049 45.7239 18.743 46.6246L22.1751 49.9201L25.2345 52.4876C25.5024 52.7123 25.2126 53.1301 24.9083 52.9579C24.6264 52.7985 24.3371 53.1545 24.5508 53.3978L26.6603 55.8002C27.2967 56.525 26.3912 57.5686 25.5839 57.0407L20.9657 54.0209C20.4634 53.6925 19.817 53.6823 19.3047 53.9948L16.9174 55.4507C15.714 56.1845 14.4499 54.6021 15.4314 53.5906L15.6256 53.3905C16.1768 52.8224 15.9135 51.8711 15.1486 51.6673C13.9103 51.3373 14.2551 49.4952 15.5289 49.6355L16.0004 49.6875C16.8749 49.7838 17.4764 48.826 17.0346 48.0652Z" fill="#FEFAE0"/>
<path d="M13.3725 45.9818C14.3291 45.1982 15.602 46.4542 14.8371 47.4257C14.2719 48.1436 14.8727 49.1861 15.7811 49.0876C17.0362 48.9516 17.5011 50.7539 16.2799 51.074C15.5211 51.273 15.2615 52.2182 15.8123 52.7768L16.0109 52.9781C16.9874 53.9683 15.7519 55.5394 14.5594 54.8239L12.0838 53.3385C11.5932 53.0441 10.9804 53.0441 10.4899 53.3385L6.65631 55.6386C5.66585 56.2329 4.6397 54.928 5.45078 54.1056L7.26895 52.262C7.47081 52.0574 7.27253 51.7173 6.99497 51.7922C6.6978 51.8723 6.50572 51.486 6.74897 51.2974L9.2552 49.3546L13.3725 45.9818Z" fill="#FEFAE0"/>
<path d="M58.7945 34.9609C59.0691 35.5113 58.6231 36.3368 58.552 36.9477C58.3738 38.4769 58.9546 41.4297 56.3573 40.9321C53.5163 39.843 53.266 39.5281 52.8693 37.0384C52.4726 34.5488 52.6673 32.8654 54.3909 32.5907C55.8353 32.3606 57.9227 33.2134 58.7945 34.9609Z" fill="#FEFAE0"/>
<path d="M55.5668 39.6018C55.2518 41.1869 53.8658 42.2471 52.4709 41.97C51.0761 41.6929 50.3154 40.2061 50.6303 38.621C52.4649 37.1955 52.2165 35.9528 53.6114 36.23C55.0062 36.5071 55.8817 38.0167 55.5668 39.6018Z" fill="#FEFAE0"/>
<path d="M58.9693 37.5066C58.9693 37.7652 58.4732 38.2089 58.15 38.2089C57.8268 38.2089 57.7989 37.8822 57.7989 37.6236C57.7989 37.3651 57.813 37.1555 58.1362 37.1555C58.4594 37.1555 58.9693 37.248 58.9693 37.5066Z" fill="#FEFAE0"/>
<path d="M58.3893 40.1423C58.1707 40.7727 58.3978 41.3656 57.6651 41.1115C57.3476 41.0015 55.748 40.788 55.9666 40.1576C56.1851 39.5272 58.4018 38.7938 58.7193 38.9039C59.0368 39.014 58.6078 39.5118 58.3893 40.1423Z" fill="#FEFAE0"/>
<ellipse cx="50.4112" cy="40.6668" rx="2.92612" ry="1.63863" fill="#FEFAE0"/>
<ellipse cx="54.5078" cy="42.0713" rx="3.04316" ry="1.63863" fill="#FEFAE0"/>
<path d="M58.8385 38.6771C58.9052 38.7438 58.6813 39.0282 58.4873 39.0282C58.2934 39.0282 58.2533 38.7417 58.2533 38.6771C58.2533 38.6124 58.0593 37.9748 58.2532 37.9748C58.4472 37.9748 58.6044 38.443 58.8385 38.6771Z" fill="#FEFAE0"/>
<path d="M58.4875 46.1679C56.8489 50.9668 56.7582 52.1372 54.625 52.1372C52.4919 52.1372 50.7626 49.4647 50.7626 46.1679C50.7626 42.8712 52.4919 40.1987 54.625 40.1987C56.7582 40.1987 58.0193 42.7737 58.4875 46.1679Z" fill="#FEFAE0"/>
<path d="M60.8054 50.7157C61.1794 52.0201 61.9987 51.786 57.9554 51.2C56.6978 50.6889 55.9348 49.6435 56.2512 48.865C56.5675 48.0864 55.4443 46.0508 59.1011 48.3807C60.3587 48.8918 61.1217 49.9372 60.8054 50.7157Z" fill="#FEFAE0"/>
<path d="M64.5736 52.7225C63.9837 52.5714 61.8093 52.1122 60.331 51.4137C58.8527 50.7152 57.8558 49.7226 58.1044 49.1966C58.3529 48.6706 58.7746 47.9243 61.231 49.5088C62.7093 50.2073 64.8221 52.1964 64.5736 52.7225Z" fill="#FEFAE0"/>
<path d="M49.5286 44.8711C48.8138 46.9494 47.4902 48.3784 46.5723 48.0627C45.6543 47.747 44.3249 48.2748 46.2043 43.7279C47.901 38.7942 48.2427 40.2206 49.1606 40.5363C50.0786 40.8519 50.2433 42.7927 49.5286 44.8711Z" fill="#FEFAE0"/>
<ellipse cx="52.4012" cy="53.1906" rx="3.27725" ry="2.45794" fill="#FEFAE0"/>
<path d="M58.0982 54.7184C61.6568 59.4011 63.1197 59.799 62.3197 60.7284C61.5198 61.6579 58.7655 60.5989 56.1679 58.3632C53.5704 56.1274 52.1131 53.5615 52.9131 52.6321C53.713 51.7027 55.5006 52.4827 58.0982 54.7184Z" fill="#FEFAE0"/>
<path d="M55.4989 57.1681C56.2711 63.9604 56.1212 63.5075 54.8076 63.3411C53.4935 63.7494 52.4011 64.1928 50.74 58.6467C48.9026 56.2645 48.3309 53.2365 49.645 52.8282C50.9591 52.4199 54.5666 54.1672 55.4989 57.1681Z" fill="#FEFAE0"/>
<path d="M64.0728 65.0383C65.3017 70.1622 64.1552 69.6098 63.3889 69.7304C62.6226 69.8509 61.6864 67.9456 61.2978 65.4747C60.9093 63.0039 61.2154 60.9032 61.9817 60.7827C62.748 60.6622 63.0522 60.7827 64.0728 65.0383Z" fill="#FEFAE0"/>
<path d="M52.9081 67.7115C49.2043 70.2388 48.6033 69.9602 47.9181 69.2069C47.2329 68.4537 49.6158 67.1946 50.0522 64.7459C51.9021 63.0631 54.3318 62.5474 55.017 63.3007C55.7022 64.054 54.758 66.0287 52.9081 67.7115Z" fill="#FEFAE0"/>
<path d="M65.7441 70.5132C66.5831 70.8278 66.1066 70.9545 64.9041 71.5667C64.6091 71.7168 64.2709 71.8299 63.9651 71.7035C63.4979 71.5104 63.1691 71.0501 63.1691 70.5132C61.7647 66.7678 64.1055 68.4064 64.5737 68.8746C65.6271 69.5768 65.7441 69.8021 65.7441 70.5132Z" fill="#FEFAE0"/>
<path d="M49.475 70.276C49.475 70.987 48.8985 71.5634 48.1875 71.5634C47.4764 71.5634 46.7829 71.2123 46.6659 70.51C47.8363 69.1055 48.4128 67.9351 49.1238 67.9351C49.8349 67.9351 52.167 67.4701 49.475 70.276Z" fill="#FEFAE0"/>
<ellipse cx="51.2308" cy="45.1145" rx="2.1068" ry="4.21361" transform="rotate(-8.71678 51.2308 45.1145)" fill="#FEFAE0"/>
<path d="M54.9761 49.2111C54.9761 51.7321 53.7185 53.7758 52.1671 53.7758C50.6157 53.7758 49.1239 52.2003 49.1239 49.6793C49.9432 44.8805 50.6157 44.6464 52.1671 44.6464C53.7185 44.6464 54.9761 46.6901 54.9761 49.2111Z" fill="#FEFAE0"/>
<path d="M56.0295 52.6053C55.6791 55.064 53.9042 55.7202 52.953 55.3141C52.0018 54.9081 51.889 53.0366 52.7011 51.1342C53.5132 49.2317 54.9426 48.0186 55.8939 48.4247C56.8451 48.8307 56.8416 50.7029 56.0295 52.6053Z" fill="#FEFAE0"/>
<ellipse cx="51.6969" cy="54.2987" rx="2.45794" ry="2.92612" transform="rotate(-18.9614 51.6969 54.2987)" fill="#FEFAE0"/>
<path d="M63.0522 60.7985C63.4033 63.4905 61.8332 62.033 61.3402 61.8233C60.8472 61.6136 60.665 60.9323 60.9332 60.3017C61.2014 59.6711 61.7399 59.3013 62.2329 59.511C62.6209 59.9757 63.1608 59.7362 63.0522 60.7985Z" fill="#FEFAE0"/>
<path d="M63.5144 64.9282C63.8018 66.846 63.8713 68.9684 62.935 69.1087C61.9987 69.2491 61.8521 68.0169 60.0743 65.8315C59.7869 63.9137 60.3624 61.85 61.2986 61.7097C62.2349 61.5694 63.2269 63.0103 63.5144 64.9282Z" fill="#FEFAE0"/>
<path d="M61.8668 62.4784C61.338 63.1239 61.2442 63.168 57.4687 60.8288C53.9778 58.4705 54.4566 57.4871 54.9854 56.8416C55.5141 56.1961 57.4832 56.9346 59.3835 58.4912C61.2837 60.0478 62.3955 61.8329 61.8668 62.4784Z" fill="#FEFAE0"/>
<path d="M67.8192 69.7763C68.3689 69.8004 68.8965 70.0929 68.5323 70.5054C68.3365 70.7271 68.0131 70.9289 67.4997 71.0985C65.6302 70.7108 64.5736 71.8007 64.6915 70.3254C64.6246 69.7474 63.052 68.4065 66.4463 69.4599C67.1652 69.683 67.5603 69.7649 67.8192 69.7763Z" fill="#FEFAE0"/>
<path d="M55.3007 65.1639C53.3777 67.0803 53.5794 64.9474 53.4459 64.4285C53.3124 63.9097 53.7423 63.3506 54.406 63.1799C55.0697 63.0092 55.8065 62.7767 55.94 63.2955C56.0087 63.9579 56.21 64.6039 55.3007 65.1639Z" fill="#FEFAE0"/>
<path d="M53.079 71.0984C52.962 71.5666 53.1961 71.9178 50.6211 71.5667C48.9535 71.4888 46.8756 72.1519 48.0461 69.811C48.168 69.3752 48.9824 68.8746 50.2699 69.811C52.4938 70.8644 52.401 71.0984 53.079 71.0984Z" fill="#FEFAE0"/>
<path d="M64.4164 51.7463C65.9784 54.127 65.0041 52.9215 64.7496 53.1207C64.4952 53.32 63.9334 53.0278 63.495 52.468C63.0565 51.9082 62.9074 51.2928 63.1618 51.0936C63.4163 50.8943 63.978 51.1865 64.4164 51.7463Z" fill="#FEFAE0"/>
<path d="M65.0062 54.265C64.6551 54.6162 64.4105 54.8895 64.2476 54.7842C64.0848 54.6789 64.3742 54.4652 64.6551 54.0309C64.7721 52.5094 65.1018 53.1063 65.2646 53.2116C65.4274 53.3169 65.3126 53.4485 65.0062 54.265Z" fill="#FEFAE0"/>
<path d="M65.0062 54.265C64.6551 54.6162 64.4105 54.8895 64.2476 54.7842C64.0848 54.6789 64.3742 54.4652 64.6551 54.0309C64.7721 52.5094 65.1018 53.1063 65.2646 53.2116C65.4274 53.3169 65.3126 53.4485 65.0062 54.265Z" fill="#FEFAE0"/>
<path d="M64.8649 53.914C64.5137 54.2651 64.2691 54.5385 64.1063 54.4331C63.9435 54.3278 64.2329 54.1142 64.5137 53.6799C64.6307 52.1583 64.9604 52.7553 65.1232 52.8606C65.2861 52.9659 65.1712 53.0975 64.8649 53.914Z" fill="#FEFAE0"/>
<path d="M64.8649 53.914C64.5137 54.2651 64.2691 54.5385 64.1063 54.4331C63.9435 54.3278 64.2329 54.1142 64.5137 53.6799C64.6307 52.1583 64.9604 52.7553 65.1232 52.8606C65.2861 52.9659 65.1712 53.0975 64.8649 53.914Z" fill="#FEFAE0"/>
<path d="M64.9388 54.0311C64.5877 54.3822 64.3431 54.6555 64.1802 54.5502C64.0174 54.4449 64.3068 54.2312 64.5877 53.797C64.7047 52.2754 65.0343 52.8724 65.1972 52.9777C65.36 53.083 65.2452 53.2146 64.9388 54.0311Z" fill="#FEFAE0"/>
<path d="M64.9388 54.0311C64.5877 54.3822 64.3431 54.6555 64.1802 54.5502C64.0174 54.4449 64.3068 54.2312 64.5877 53.797C64.7047 52.2754 65.0343 52.8724 65.1972 52.9777C65.36 53.083 65.2452 53.2146 64.9388 54.0311Z" fill="#FEFAE0"/>
<path d="M64.4568 52.4883C64.4568 52.8762 63.8716 52.4883 63.4034 52.9565C63.0802 52.9565 62.7011 53.0736 62.7011 52.1372C62.7011 51.7494 62.9631 51.4349 63.2863 51.4349C63.6095 51.4349 64.4568 52.1005 64.4568 52.4883Z" fill="#FEFAE0"/>
<path d="M63.4033 53.0735C63.0521 53.3077 63.2862 54.0099 63.0521 54.127C62.8582 54.127 62.701 54.0099 62.584 53.1906C62.8181 52.1372 62.8582 52.3713 63.0521 52.3713C63.2461 52.3713 63.5203 52.3713 63.4033 53.0735Z" fill="#FEFAE0"/>
<path d="M47.4852 50.7327C47.134 52.4884 45.9668 53.8649 45.2613 53.7759C44.5559 53.6869 44.385 51.6202 44.6034 49.8886C44.7931 45.5828 45.5708 46.8254 46.2763 46.9143C46.9818 47.0033 47.5781 47.3921 47.4852 50.7327Z" fill="#FEFAE0"/>
<path d="M45.6996 54.46C45.4266 55.2548 44.8583 55.7799 44.4304 55.6329C44.0024 55.4859 43.2904 56.065 44.1498 53.9277C45.0278 52.1381 44.991 52.6078 45.419 52.7548C45.8469 52.9018 45.9725 53.6652 45.6996 54.46Z" fill="#FEFAE0"/>
<path d="M45.3975 56.6529C45.921 56.8289 45.7274 57.2833 45.1903 57.1544C45.096 57.1318 44.9976 57.0933 44.8403 57.0289C44.0302 56.6974 44.0531 56.4803 44.1511 56.241C44.249 56.0017 44.422 56.2827 44.9006 56.4786C45.0464 56.5382 45.2227 56.5941 45.3975 56.6529Z" fill="#FEFAE0"/>
<path d="M44.8575 55.8826C44.8575 56.2059 44.9993 56.819 44.6761 56.819C44.3529 56.819 43.687 56.2059 43.687 55.8826C43.687 55.5594 43.7149 54.5952 44.0381 54.5952C44.3614 54.5952 44.8575 55.5594 44.8575 55.8826Z" fill="#FEFAE0"/>
<path d="M46.783 54.1269C46.783 54.7087 46.259 55.1803 45.6126 55.1803C44.9662 55.1803 44.4421 54.7087 44.4421 54.1269C44.4421 53.5451 44.7321 52.4883 45.3785 52.4883C46.0249 52.4883 46.783 53.5451 46.783 54.1269Z" fill="#FEFAE0"/>
<path d="M46.8999 54.478C46.8999 54.9305 46.7966 56.317 46.6027 56.317C46.4087 56.317 46.3147 55.6328 46.3147 55.1803C46.5488 54.7121 46.2917 53.625 46.4856 53.625C46.6796 53.625 46.8999 54.0255 46.8999 54.478Z" fill="#FEFAE0"/>
<path d="M64.8504 53.6921C64.5274 54.0018 64.2293 54.2149 64.1846 54.1683C64.1399 54.1216 64.1317 53.9744 64.4547 53.6648C64.7777 53.3552 64.8782 52.7988 64.9229 52.8455C64.9676 52.8922 65.1735 53.3825 64.8504 53.6921Z" fill="#FEFAE0"/>
<path d="M64.8203 52.6433C64.9638 53.0216 65.317 53.1079 65.0369 53.2141C64.7568 53.3204 64.3699 53.5978 64.0952 53.1796C63.0239 52.8025 63.5545 52.5987 63.8346 52.4924C64.1147 52.3862 64.6768 52.265 64.8203 52.6433Z" fill="#FEFAE0"/>
</g>
<defs>
<filter id="filter0_d_127_275" x="1.15759" y="0" width="85.474" height="83.9678" filterUnits="userSpaceOnUse" color-interpolation-filters="sRGB">
<feFlood flood-opacity="0" result="BackgroundImageFix"/>
<feColorMatrix in="SourceAlpha" type="matrix" values="0 0 0 0 0 0 0 0 0 0 0 0 0 0 0 0 0 0 127 0" result="hardAlpha"/>
<feOffset dy="4"/>
<feGaussianBlur stdDeviation="2"/>
<feComposite in2="hardAlpha" operator="out"/>
<feColorMatrix type="matrix" values="0 0 0 0 0 0 0 0 0 0 0 0 0 0 0 0 0 0 0.25 0"/>
<feBlend mode="normal" in2="BackgroundImageFix" result="effect1_dropShadow_127_275"/>
<feBlend mode="normal" in="SourceGraphic" in2="effect1_dropShadow_127_275" result="shape"/>
</filter>
</defs>
</svg>
