<svg width="190" height="517" viewBox="0 0 190 517" fill="none" xmlns="http://www.w3.org/2000/svg">
<path d="M97 45.6202C97 75.9958 85.924 110 55.3533 110C24.7825 110 0 85.3757 0 55C0 24.6243 24.7825 0 55.3533 0C85.924 0 97 15.2445 97 45.6202Z" fill="white"/>
<path d="M173 353.648C173 412.817 76.8826 398.47 40.9247 398.47C4.96684 398.47 0 288.191 0 229.022C0 169.854 11.1613 51.922 57.0466 113.142C120.294 135.553 161.219 289.149 173 353.648Z" fill="white"/>
<path d="M189.5 469.868C189.5 492.975 171.295 500.26 129.904 486.789C112.912 481.258 94.2049 483.009 79.402 493.02C41.8612 518.406 22.5 525.67 22.5 502.5C22.5 474.886 52.2192 419.868 108 419.868C163.781 419.868 189.5 442.253 189.5 469.868Z" fill="white"/>
</svg>
