<svg width="551" height="851" viewBox="0 0 551 851" fill="none" xmlns="http://www.w3.org/2000/svg">
<path d="M196.87 489.764C196.632 548.246 190.351 607.772 207.198 613.16C228.122 617.456 272.035 568.327 296.8 515.346C350.999 399.394 282.682 409.659 265.835 404.272C248.988 398.884 197.501 334.768 196.87 489.764Z" fill="white"/>
<path d="M288.19 520.538C305.228 579.161 333.675 629.195 355.907 622.734C378.138 616.273 399.188 557.771 382.15 499.147C341.486 359.227 406.194 298.877 306.469 406.202C284.237 412.663 237.396 381.711 288.19 520.538Z" fill="white"/>
<path d="M179.755 708.889C173.893 782.109 173.406 836.97 181.987 837.657C190.567 838.344 204.966 784.596 210.828 711.376C244.219 569.06 256.078 541.341 205.905 577.556C197.324 576.869 198.946 535.032 179.755 708.889Z" fill="white"/>
<path d="M420.011 681.541C477.666 727.055 528.727 758.474 534.061 751.718C539.395 744.961 496.98 702.588 439.326 657.074C342.755 573.042 330.61 580.14 325.276 586.897C319.943 593.653 286.041 569.084 420.011 681.541Z" fill="white"/>
<path d="M231.958 73.1581C221.309 101.606 219.761 137.335 248.392 148.052C277.022 158.77 308.865 144.396 319.514 115.949C330.163 87.5007 315.586 55.751 286.955 45.0337C258.325 34.3163 242.607 44.7103 231.958 73.1581Z" fill="white"/>
<path d="M210.372 419.394C223.359 477.12 313.983 442.026 349.064 434.134C384.145 426.242 364.786 317.562 351.8 259.836C342.879 188.901 302.039 89.5039 270.71 159.302C213.924 195.049 207.709 353.882 210.372 419.394Z" fill="white"/>
<path d="M219.783 536.401C224.855 558.945 244.215 562.057 281.64 539.829C297.004 530.704 315.639 528.307 332.278 534.824C374.475 551.351 394.959 554.189 389.873 531.584C383.812 504.643 342.742 457.489 288.321 469.732C233.901 481.976 213.722 509.46 219.783 536.401Z" fill="white"/>
</svg>
