<svg width="316" height="769" viewBox="0 0 316 769" fill="none" xmlns="http://www.w3.org/2000/svg">
<path d="M84.6338 413C75.298 470.732 59.8307 528.556 75.6338 536.5C95.6338 544 139.797 503.252 166.063 451C213.135 344 181.866 347.225 166.063 339.281C150.26 331.337 109.377 259.991 84.6338 413Z" fill="white"/>
<path d="M181.967 486.666C194.709 546.37 223.394 590.852 246.035 586.02C268.676 581.188 281.377 527.704 268.635 468C238.222 325.5 307.134 270 199.891 369.812C177.249 374.644 165.462 341.609 181.967 486.666Z" fill="white"/>
<path d="M40.7677 627.151C18.7107 697.216 7.48606 756.11 15.6967 758.695C23.9074 761.279 48.4441 706.576 70.5011 636.512C134.816 505.239 152.564 480.866 95.5722 504.968C87.3615 502.384 98.2804 461.964 40.7677 627.151Z" fill="white"/>
<path d="M241.574 633.226C257.942 704.834 278.014 761.328 286.405 759.41C294.797 757.492 288.33 697.887 271.962 626.28C249.434 500.265 235.523 498.178 227.131 500.096C218.74 502.014 207.739 461.617 241.574 633.226Z" fill="white"/>
<path d="M172.135 45.6202C172.135 75.9958 183.211 110 213.782 110C244.352 110 269.135 85.3757 269.135 55C269.135 24.6243 244.352 0 213.782 0C183.211 0 172.135 15.2445 172.135 45.6202Z" fill="white"/>
<path d="M96.1348 353.648C96.1348 412.817 192.252 398.47 228.21 398.47C264.168 398.47 269.135 288.191 269.135 229.022C269.135 169.854 257.973 51.922 212.088 113.142C148.841 135.553 107.916 289.149 96.1348 353.648Z" fill="white"/>
<path d="M79.6348 469.868C79.6348 492.975 97.84 500.26 139.231 486.789C156.223 481.258 174.93 483.009 189.733 493.02C227.274 518.406 246.635 525.67 246.635 502.5C246.635 474.886 216.916 419.868 161.135 419.868C105.354 419.868 79.6348 442.253 79.6348 469.868Z" fill="white"/>
</svg>
