<svg width="358" height="790" viewBox="0 0 358 790" fill="none" xmlns="http://www.w3.org/2000/svg">
<path d="M113.44 432.423C92.66 487.089 65.8556 540.609 79.7333 551.574C97.8112 562.952 156.192 532.394 198 491.5C289.5 402 221.934 387.595 208.057 376.629C194.179 365.663 168.515 287.541 113.44 432.423Z" fill="white"/>
<path d="M215.5 500.5C228.242 560.204 252.988 612.169 275.629 607.336C298.271 602.504 323.506 545.682 310.764 485.978C280.351 343.478 349.263 287.978 242.02 387.79C219.378 392.623 174.904 358.356 215.5 500.5Z" fill="white"/>
<path d="M38.023 645.805C16.2334 715.953 3.71687 769.369 11.9373 771.923C20.1578 774.476 46.0023 725.2 67.7919 655.052C131.606 523.535 149.26 499.094 92.3611 523.414C84.1406 520.86 94.9052 480.399 38.023 645.805Z" fill="white"/>
<path d="M273.545 659.211C289.341 730.947 308.962 787.599 317.368 785.748C325.775 783.897 319.784 724.243 303.987 652.507C282.464 526.317 268.57 524.119 260.164 525.97C251.757 527.821 241.079 487.337 273.545 659.211Z" fill="white"/>
<path d="M235.318 38.5706C218.684 63.9874 209.332 98.5054 234.912 115.246C260.492 131.986 294.713 124.952 311.346 99.5349C327.979 74.1181 320.727 39.9431 295.147 23.203C269.566 6.46295 251.951 13.1537 235.318 38.5706Z" fill="white"/>
<path d="M138.264 371.626C138.264 430.795 234.381 416.448 270.339 416.448C306.297 416.448 311.264 306.169 311.264 247C318.13 175.836 300.102 69.8998 254.217 131.12C190.97 153.531 150.045 307.127 138.264 371.626Z" fill="white"/>
<path d="M121.764 487.845C121.764 510.953 139.969 518.238 181.36 504.766C198.352 499.236 217.059 500.987 231.862 510.997C269.402 536.384 288.764 543.648 288.764 520.478C288.764 492.864 259.044 437.845 203.264 437.845C147.483 437.845 121.764 460.231 121.764 487.845Z" fill="white"/>
</svg>
