<svg width="506" height="847" viewBox="0 0 506 847" fill="none" xmlns="http://www.w3.org/2000/svg">
<path d="M169.532 491.207C169.327 549.689 163.899 609.215 178.458 614.603C196.54 618.899 234.49 569.77 255.891 516.79C302.731 400.837 243.691 411.102 229.132 405.715C214.573 400.327 170.078 336.212 169.532 491.207Z" fill="white"/>
<path d="M238.381 513.943C243.234 574.192 259.231 627.595 279.245 624.391C299.26 621.187 326.851 566.486 321.997 506.238C310.412 362.438 335.497 320.002 272.817 403.778C252.803 406.982 217.981 369.778 238.381 513.943Z" fill="white"/>
<path d="M166.537 713.514C170.092 786.882 196.402 836.917 205 836.5C213.598 836.083 201.227 785.374 197.672 712.005C212.579 566.586 220.794 537.577 175.667 579.914C167.069 580.331 163.324 538.631 166.537 713.514Z" fill="white"/>
<path d="M351.371 690.984C401.196 736.498 445.323 767.917 449.933 761.161C454.542 754.404 417.888 712.031 368.063 666.517C284.606 582.485 274.111 589.583 269.501 596.34C264.892 603.096 235.594 578.527 351.371 690.984Z" fill="white"/>
<path d="M236.215 71.7328C222.765 98.9683 217.639 134.362 245.049 147.898C272.46 161.435 305.584 150.33 319.034 123.094C332.484 95.8588 321.167 62.8064 293.757 49.2698C266.346 35.7332 249.665 44.4973 236.215 71.7328Z" fill="white"/>
<path d="M171.4 413.189C176.774 471.75 258.218 444.693 289.174 439.883C320.13 435.074 314.391 325.264 309.018 266.703C308.466 195.352 283.327 92.9148 249.384 159.644C196.969 190.284 175.686 347.776 171.4 413.189Z" fill="white"/>
</svg>
