<svg width="305" height="785" viewBox="0 0 305 785" fill="none" xmlns="http://www.w3.org/2000/svg">
<path d="M71.6246 425.97C59.2126 483.12 40.673 540.034 56.0284 548.812C75.5983 557.371 121.879 519.046 150.903 468.274C203.634 363.946 172.237 365.493 156.882 356.715C141.527 347.937 104.52 274.504 71.6246 425.97Z" fill="white"/>
<path d="M171.093 501.155C183.836 560.859 199.985 608.68 222.627 603.848C245.268 599.015 270.504 542.193 257.761 482.489C227.348 339.989 296.261 284.489 189.017 384.301C166.376 389.134 154.589 356.098 171.093 501.155Z" fill="white"/>
<path d="M24.2195 646.513C10.9119 718.752 4.8254 773.276 13.2909 774.836C21.7563 776.395 41.5681 724.399 54.8757 652.16C102.625 513.997 117.253 487.634 63.6431 518.536C55.1777 516.977 61.0627 475.524 24.2195 646.513Z" fill="white"/>
<path d="M207.759 651.662C207.6 725.116 214.449 784.677 223.057 784.696C231.665 784.715 238.772 725.183 238.931 651.729C245.326 523.876 232.241 518.713 223.633 518.695C215.025 518.676 213.393 476.839 207.759 651.662Z" fill="white"/>
<path d="M173.104 42.9375C161.939 71.1866 159.74 106.882 188.171 118.119C216.601 129.356 248.7 115.565 259.866 87.316C271.031 59.0669 257.035 27.0569 228.604 15.8197C200.174 4.58248 184.27 14.6884 173.104 42.9375Z" fill="white"/>
<path d="M85.2612 368.137C85.2612 427.306 181.379 412.959 217.336 412.959C253.294 412.959 258.261 302.68 258.261 243.511C265.127 172.347 247.1 66.4108 201.215 127.631C137.967 150.042 97.0426 303.638 85.2612 368.137Z" fill="white"/>
<path d="M68.7613 484.357C68.7613 507.464 86.9665 514.749 128.357 501.278C145.35 495.747 164.056 497.498 178.859 507.509C216.4 532.895 235.761 540.159 235.761 516.989C235.761 489.375 206.042 434.357 150.261 434.357C94.4805 434.357 68.7613 456.742 68.7613 484.357Z" fill="white"/>
</svg>
