<svg width="4467" height="881" viewBox="0 0 4467 881" fill="none" xmlns="http://www.w3.org/2000/svg">
<path d="M231.056 476C240.391 533.732 255.859 591.556 240.056 599.5C220.056 607 175.892 566.252 149.627 514C102.555 407 133.824 410.225 149.627 402.281C165.43 394.337 206.313 322.991 231.056 476Z" fill="white"/>
<path d="M133.722 549.666C120.98 609.37 92.2959 653.853 69.6546 649.02C47.0132 644.188 34.3123 590.704 47.0547 531C77.4679 388.5 8.55517 333 115.799 432.812C138.44 437.645 150.227 404.609 133.722 549.666Z" fill="white"/>
<path d="M224.115 703.226C207.747 774.833 187.675 831.328 179.284 829.409C170.892 827.491 177.358 767.887 193.726 696.28C204.555 550.5 201.555 520.5 238.557 570.096C246.949 572.014 257.95 531.616 224.115 703.226Z" fill="white"/>
<path d="M74.1154 696.226C57.7474 767.834 37.6759 824.328 29.2844 822.41C20.8929 820.492 27.3592 760.887 43.7272 689.28C66.2556 563.265 80.1667 561.178 88.5581 563.096C96.9496 565.014 107.95 524.617 74.1154 696.226Z" fill="white"/>
<path d="M143.555 108.62C143.555 138.996 132.479 173 101.908 173C71.3372 173 46.5547 148.376 46.5547 118C46.5547 87.6243 71.3372 63 101.908 63C132.479 63 143.555 78.2445 143.555 108.62Z" fill="white"/>
<path d="M219.555 416.648C219.555 475.817 123.437 461.47 87.4794 461.47C51.5215 461.47 46.5547 351.191 46.5547 292.022C46.5547 232.854 57.716 114.922 103.601 176.142C166.849 198.553 207.773 352.149 219.555 416.648Z" fill="white"/>
<path d="M236.055 532.868C236.055 555.975 217.849 563.26 176.459 549.789C159.466 544.258 140.76 546.009 125.957 556.02C88.4159 581.406 69.0547 588.67 69.0547 565.5C69.0547 537.886 98.7739 482.868 154.555 482.868C210.335 482.868 236.055 505.253 236.055 532.868Z" fill="white"/>
<path d="M915.193 479.623C927.605 536.773 946.145 593.686 930.79 602.464C911.22 611.024 864.939 572.698 835.915 521.926C783.184 417.598 814.581 419.145 829.936 410.367C845.291 401.589 882.298 328.157 915.193 479.623Z" fill="white"/>
<path d="M815.723 554.807C802.981 614.512 786.832 662.332 764.19 657.5C741.549 652.668 716.313 595.846 729.056 536.142C759.469 393.641 690.556 338.141 797.8 437.954C820.441 442.786 832.228 409.751 815.723 554.807Z" fill="white"/>
<path d="M951.991 702.366C959.121 775.473 957.955 835.416 949.388 836.251C940.821 837.087 928.096 778.499 920.967 705.391C885.114 563.675 872.776 536.165 923.57 571.506C932.137 570.67 929.791 528.867 951.991 702.366Z" fill="white"/>
<path d="M779.059 705.314C779.218 778.769 772.369 838.33 763.761 838.349C755.153 838.368 748.046 778.836 747.887 705.382C741.492 577.529 754.577 572.366 763.185 572.347C771.792 572.329 773.424 530.492 779.059 705.314Z" fill="white"/>
<path d="M818.6 101.787C826.292 131.172 824.187 166.873 794.613 174.614C765.038 182.355 734.828 164.808 727.137 135.422C719.445 106.036 737.185 75.9394 766.759 68.1986C796.334 60.4577 810.909 72.4008 818.6 101.787Z" fill="white"/>
<path d="M901.556 421.79C901.556 480.958 805.439 466.611 769.481 466.611C733.523 466.611 728.556 356.333 728.556 297.164C721.69 226 739.717 120.063 785.603 181.283C848.85 203.694 889.775 357.29 901.556 421.79Z" fill="white"/>
<path d="M918.056 538.009C918.056 561.116 899.85 568.401 858.46 554.93C841.467 549.4 822.761 551.151 807.958 561.161C770.417 586.547 751.056 593.812 751.056 570.641C751.056 543.027 780.775 488.009 836.556 488.009C892.336 488.009 918.056 510.395 918.056 538.009Z" fill="white"/>
<path d="M1524.51 485.025C1545.29 539.691 1572.1 593.211 1558.22 604.176C1540.14 615.554 1481.76 584.996 1439.95 544.102C1348.45 454.602 1416.02 440.197 1429.9 429.231C1443.78 418.265 1469.44 340.143 1524.51 485.025Z" fill="white"/>
<path d="M1422.45 553.102C1409.71 612.806 1384.97 664.771 1362.32 659.938C1339.68 655.106 1314.45 598.284 1327.19 538.58C1357.6 396.08 1288.69 340.58 1395.93 440.392C1418.58 445.225 1463.05 410.958 1422.45 553.102Z" fill="white"/>
<path d="M1599.93 698.407C1621.72 768.555 1634.24 821.971 1626.02 824.525C1617.8 827.078 1591.95 777.802 1570.16 707.654C1506.35 576.137 1488.69 551.697 1545.59 576.016C1553.81 573.462 1543.05 533.002 1599.93 698.407Z" fill="white"/>
<path d="M1364.41 711.813C1348.61 783.549 1328.99 840.202 1320.59 838.35C1312.18 836.499 1318.17 776.845 1333.97 705.109C1355.49 578.919 1369.38 576.721 1377.79 578.572C1386.2 580.423 1396.87 539.94 1364.41 711.813Z" fill="white"/>
<path d="M1402.64 91.1726C1419.27 116.589 1428.62 151.107 1403.04 167.848C1377.46 184.588 1343.24 177.554 1326.61 152.137C1309.97 126.72 1317.23 92.5452 1342.81 75.8051C1368.39 59.065 1386 65.7558 1402.64 91.1726Z" fill="white"/>
<path d="M1499.69 424.228C1499.69 483.397 1403.57 469.05 1367.62 469.05C1331.66 469.05 1326.69 358.771 1326.69 299.602C1319.82 228.438 1337.85 122.502 1383.74 183.722C1446.98 206.133 1487.91 359.729 1499.69 424.228Z" fill="white"/>
<path d="M1516.19 540.448C1516.19 563.555 1497.99 570.84 1456.59 557.369C1439.6 551.838 1420.9 553.589 1406.09 563.599C1368.55 588.986 1349.19 596.25 1349.19 573.08C1349.19 545.466 1378.91 490.448 1434.69 490.448C1490.47 490.448 1516.19 512.833 1516.19 540.448Z" fill="white"/>
<path d="M2665.95 471.44C2680.25 528.145 2700.68 584.409 2685.62 593.694C2666.35 602.9 2611.9 565.786 2575.11 520.324C2494.6 420.828 2563.38 414.346 2578.43 405.062C2593.48 395.777 2628.02 321.154 2665.95 471.44Z" fill="white"/>
<path d="M2556.69 527.237C2537.12 585.063 2506.52 633.811 2484.59 626.389C2462.66 618.967 2444.18 559.604 2463.75 501.778C2510.46 363.76 2448.44 300.651 2543.4 412.214C2565.33 419.636 2613.48 390.752 2556.69 527.237Z" fill="white"/>
<path d="M2716.14 692.121C2729.66 764.321 2735.9 818.828 2727.44 820.412C2718.98 821.996 2699.02 770.058 2685.5 697.858C2637.35 559.834 2622.64 533.514 2676.34 564.26C2684.8 562.676 2678.8 521.241 2716.14 692.121Z" fill="white"/>
<path d="M2471.71 686.073C2442.92 753.651 2413.17 805.699 2405.25 802.326C2397.33 798.952 2414.24 741.434 2443.03 673.856C2487.52 553.821 2501.58 554.23 2509.5 557.603C2517.41 560.977 2535.39 523.165 2471.71 686.073Z" fill="white"/>
<path d="M2590.51 66.1212C2604.09 93.2937 2609.38 128.663 2582.03 142.327C2554.68 155.991 2521.51 145.041 2507.93 117.869C2494.36 90.6961 2505.52 57.5913 2532.86 43.9269C2560.21 30.2626 2576.93 38.9488 2590.51 66.1212Z" fill="white"/>
<path d="M2648.33 408.177C2641.48 466.947 2547.67 441.563 2511.95 437.398C2476.24 433.233 2484.08 323.121 2490.93 264.35C2492.36 192.87 2522.53 89.7351 2561.02 155.858C2621.24 185.444 2644.1 342.747 2648.33 408.177Z" fill="white"/>
<path d="M2651.26 525.525C2648.58 548.477 2629.66 553.604 2590.1 535.429C2573.87 527.968 2555.08 527.54 2539.22 535.768C2498.99 556.635 2478.92 561.608 2481.6 538.594C2484.8 511.165 2520.69 459.96 2576.1 466.421C2631.5 472.883 2654.46 498.097 2651.26 525.525Z" fill="white"/>
<path d="M2130.3 509.157C2138.58 567.051 2152.98 625.149 2137.04 632.801C2116.9 639.933 2066.65 597.307 2034.84 548.234C1965.21 440.833 2034.29 441.609 2050.24 433.957C2066.19 426.304 2108.37 355.72 2130.3 509.157Z" fill="white"/>
<path d="M2033.64 547.291C2014.68 605.321 1984.6 654.389 1962.59 647.199C1940.59 640.009 1921.48 580.845 1940.44 522.815C1985.69 384.311 1923.01 321.861 2019.14 432.415C2041.15 439.605 2088.98 410.214 2033.64 547.291Z" fill="white"/>
<path d="M2157.05 733.889C2162.91 807.109 2163.4 861.97 2154.82 862.657C2146.23 863.344 2131.84 809.596 2125.97 736.376C2092.58 594.06 2080.72 566.341 2130.9 602.556C2139.48 601.869 2137.86 560.032 2157.05 733.889Z" fill="white"/>
<path d="M1912.17 704.828C1863.46 759.814 1818.76 799.762 1812.31 794.054C1805.87 788.347 1840.13 739.145 1888.83 684.159C1969.04 584.386 1982.24 589.226 1988.69 594.933C1995.13 600.641 2024.16 570.468 1912.17 704.828Z" fill="white"/>
<path d="M2097.84 98.1581C2108.49 126.606 2110.04 162.335 2081.41 173.052C2052.78 183.77 2020.94 169.396 2010.29 140.949C1999.64 112.501 2014.22 80.751 2042.85 70.0337C2071.48 59.3163 2087.19 69.7103 2097.84 98.1581Z" fill="white"/>
<path d="M2119.43 444.394C2106.44 502.12 2015.82 467.026 1980.74 459.134C1945.66 451.242 1965.02 342.562 1978 284.836C1986.92 213.901 2027.76 114.504 2059.09 184.302C2115.88 220.049 2122.09 378.882 2119.43 444.394Z" fill="white"/>
<path d="M2110.02 561.401C2104.95 583.945 2085.59 587.057 2048.16 564.829C2032.8 555.704 2014.16 553.307 1997.52 559.824C1955.33 576.351 1934.84 579.189 1939.93 556.584C1945.99 529.643 1987.06 482.489 2041.48 494.732C2095.9 506.976 2116.08 534.46 2110.02 561.401Z" fill="white"/>
<path d="M3275.03 488.775C3275.27 547.257 3281.55 606.783 3264.71 612.171C3243.78 616.467 3199.87 567.338 3175.11 514.357C3120.91 398.405 3189.22 408.67 3206.07 403.283C3222.92 397.895 3274.4 333.779 3275.03 488.775Z" fill="white"/>
<path d="M3183.71 519.549C3166.68 578.172 3138.23 628.206 3116 621.745C3093.77 615.284 3072.72 556.782 3089.75 498.158C3130.42 358.238 3065.71 297.888 3165.44 405.213C3187.67 411.674 3234.51 380.722 3183.71 519.549Z" fill="white"/>
<path d="M3292.15 707.9C3298.01 781.12 3298.5 835.981 3289.92 836.668C3281.34 837.355 3266.94 783.607 3261.08 710.387C3227.69 568.071 3215.83 540.352 3266 576.567C3274.58 575.88 3272.96 534.043 3292.15 707.9Z" fill="white"/>
<path d="M3051.89 680.552C2994.24 726.066 2943.18 757.485 2937.84 750.729C2932.51 743.972 2974.92 701.599 3032.58 656.085C3129.15 572.053 3141.29 579.151 3146.63 585.908C3151.96 592.664 3185.86 568.095 3051.89 680.552Z" fill="white"/>
<path d="M3239.95 72.1691C3250.6 100.617 3252.14 136.346 3223.51 147.063C3194.88 157.781 3163.04 143.407 3152.39 114.96C3141.74 86.5117 3156.32 54.762 3184.95 44.0446C3213.58 33.3273 3229.3 43.7213 3239.95 72.1691Z" fill="white"/>
<path d="M3261.53 418.405C3248.55 476.131 3157.92 441.037 3122.84 433.145C3087.76 425.253 3107.12 316.573 3120.11 258.847C3129.03 187.912 3169.87 88.5149 3201.19 158.313C3257.98 194.06 3264.2 352.893 3261.53 418.405Z" fill="white"/>
<path d="M3252.12 535.412C3247.05 557.956 3227.69 561.068 3190.27 538.84C3174.9 529.715 3156.27 527.318 3139.63 533.835C3097.43 550.362 3076.95 553.2 3082.03 530.595C3088.09 503.654 3129.16 456.5 3183.58 468.743C3238 480.987 3258.18 508.471 3252.12 535.412Z" fill="white"/>
<path d="M3825.93 481.205C3826.14 539.687 3831.57 599.214 3817.01 604.601C3798.93 608.898 3760.98 559.768 3739.58 506.788C3692.74 390.835 3751.78 401.1 3766.33 395.713C3780.89 390.325 3825.39 326.21 3825.93 481.205Z" fill="white"/>
<path d="M3747.02 511.979C3732.29 570.602 3707.71 620.636 3688.49 614.175C3669.28 607.714 3651.09 549.212 3665.81 490.589C3700.96 350.669 3645.04 290.319 3731.22 397.643C3750.43 404.104 3790.91 373.153 3747.02 511.979Z" fill="white"/>
<path d="M3828.93 703.512C3825.37 776.881 3818.84 831.353 3810.24 830.936C3801.64 830.52 3794.24 775.372 3797.79 702.003C3782.89 556.584 3774.67 527.575 3819.8 569.913C3828.4 570.329 3832.14 528.629 3828.93 703.512Z" fill="white"/>
<path d="M3633.1 672.982C3583.27 718.496 3539.14 749.915 3534.53 743.159C3529.92 736.403 3566.58 694.029 3616.4 648.515C3699.86 564.484 3710.36 571.582 3714.97 578.338C3719.57 585.094 3748.87 560.525 3633.1 672.982Z" fill="white"/>
<path d="M3784.05 64.5983C3794.7 93.0461 3796.24 128.775 3767.61 139.493C3738.98 150.21 3707.14 135.837 3696.49 107.389C3685.84 78.9409 3700.42 47.1912 3729.05 36.4738C3757.68 25.7565 3773.4 36.1505 3784.05 64.5983Z" fill="white"/>
<path d="M3814.27 410.836C3803.04 468.562 3724.72 433.468 3694.41 425.575C3664.09 417.683 3680.82 309.003 3692.04 251.277C3699.75 180.342 3735.05 80.9453 3762.12 150.744C3811.2 186.49 3816.57 345.323 3814.27 410.836Z" fill="white"/>
<path d="M3806.13 527.843C3802.03 548.924 3787.14 553.013 3758.77 535.278C3741.56 524.512 3720.93 521.076 3703.2 528.808C3670.61 543.024 3654.98 544.416 3659.14 523.025C3664.38 496.084 3699.87 448.931 3746.9 461.174C3793.93 473.417 3811.37 500.902 3806.13 527.843Z" fill="white"/>
<path d="M4383.06 419C4392.39 476.732 4407.86 534.556 4392.06 542.5C4372.06 550 4327.89 509.252 4301.63 457C4254.56 350 4285.82 353.225 4301.63 345.281C4317.43 337.337 4358.31 265.991 4383.06 419Z" fill="white"/>
<path d="M4285.72 492.666C4272.98 552.37 4244.3 596.852 4221.66 592.02C4199.01 587.188 4186.31 533.704 4199.06 474C4229.47 331.5 4160.56 276 4267.8 375.812C4290.44 380.644 4302.23 347.609 4285.72 492.666Z" fill="white"/>
<path d="M4426.92 633.151C4448.98 703.216 4460.2 762.11 4451.99 764.695C4443.78 767.279 4419.25 712.576 4397.19 642.512C4332.87 511.239 4315.13 486.866 4372.12 510.968C4380.33 508.384 4369.41 467.964 4426.92 633.151Z" fill="white"/>
<path d="M4226.12 639.226C4209.75 710.834 4189.68 767.328 4181.28 765.41C4172.89 763.492 4179.36 703.887 4195.73 632.28C4218.26 506.265 4232.17 504.178 4240.56 506.096C4248.95 508.014 4259.95 467.617 4226.12 639.226Z" fill="white"/>
<path d="M4295.56 51.6202C4295.56 81.9958 4284.48 116 4253.91 116C4223.34 116 4198.56 91.3757 4198.56 61C4198.56 30.6243 4223.34 6 4253.91 6C4284.48 6 4295.56 21.2445 4295.56 51.6202Z" fill="white"/>
<path d="M4371.56 359.648C4371.56 418.817 4275.44 404.47 4239.48 404.47C4203.52 404.47 4198.56 294.191 4198.56 235.022C4198.56 175.854 4209.72 57.922 4255.6 119.142C4318.85 141.553 4359.77 295.149 4371.56 359.648Z" fill="white"/>
<path d="M4388.06 475.868C4388.06 498.975 4369.85 506.26 4328.46 492.789C4311.47 487.258 4292.76 489.009 4277.96 499.02C4240.42 524.406 4221.06 531.67 4221.06 508.5C4221.06 480.886 4250.77 425.868 4306.56 425.868C4362.34 425.868 4388.06 448.253 4388.06 475.868Z" fill="white"/>
</svg>
