<svg width="5732" height="892" viewBox="0 0 5732 892" fill="none" xmlns="http://www.w3.org/2000/svg">
<path d="M5500.63 524C5491.3 581.732 5475.83 639.556 5491.63 647.5C5511.63 655 5555.8 614.252 5582.06 562C5629.13 455 5597.87 458.225 5582.06 450.281C5566.26 442.337 5525.38 370.991 5500.63 524Z" fill="white"/>
<path d="M5597.97 597.666C5610.71 657.37 5639.39 701.853 5662.03 697.02C5684.68 692.188 5697.38 638.704 5684.63 579C5654.22 436.5 5723.13 381 5615.89 480.812C5593.25 485.645 5581.46 452.609 5597.97 597.666Z" fill="white"/>
<path d="M5507.57 751.226C5523.94 822.833 5544.01 879.328 5552.41 877.409C5560.8 875.491 5554.33 815.887 5537.96 744.28C5527.13 598.5 5530.13 568.5 5493.13 618.096C5484.74 620.014 5473.74 579.616 5507.57 751.226Z" fill="white"/>
<path d="M5657.57 744.226C5673.94 815.834 5694.01 872.328 5702.41 870.41C5710.8 868.492 5704.33 808.887 5687.96 737.28C5665.43 611.265 5651.52 609.178 5643.13 611.096C5634.74 613.014 5623.74 572.617 5657.57 744.226Z" fill="white"/>
<path d="M5588.13 156.62C5588.13 186.996 5599.21 221 5629.78 221C5660.35 221 5685.13 196.376 5685.13 166C5685.13 135.624 5660.35 111 5629.78 111C5599.21 111 5588.13 126.244 5588.13 156.62Z" fill="white"/>
<path d="M5512.13 464.648C5512.13 523.817 5608.25 509.47 5644.21 509.47C5680.17 509.47 5685.13 399.191 5685.13 340.022C5685.13 280.854 5673.97 162.922 5628.09 224.142C5564.84 246.553 5523.92 400.149 5512.13 464.648Z" fill="white"/>
<path d="M5495.63 580.868C5495.63 603.975 5513.84 611.26 5555.23 597.789C5572.22 592.258 5590.93 594.009 5605.73 604.02C5643.27 629.406 5662.63 636.67 5662.63 613.5C5662.63 585.886 5632.91 530.868 5577.13 530.868C5521.35 530.868 5495.63 553.253 5495.63 580.868Z" fill="white"/>
<path d="M5159.63 517C5150.3 574.732 5134.83 632.556 5150.63 640.5C5170.63 648 5214.8 607.252 5241.06 555C5288.13 448 5256.87 451.225 5241.06 443.281C5225.26 435.337 5184.38 363.991 5159.63 517Z" fill="white"/>
<path d="M5256.97 590.666C5269.71 650.37 5298.39 694.853 5321.03 690.02C5343.68 685.188 5356.38 631.704 5343.63 572C5313.22 429.5 5382.13 374 5274.89 473.812C5252.25 478.645 5240.46 445.609 5256.97 590.666Z" fill="white"/>
<path d="M5134.81 741.393C5131.6 814.777 5135.97 874.572 5144.57 874.948C5153.17 875.323 5162.74 816.138 5165.95 742.754C5194.17 599.322 5205.01 571.192 5156.18 609.199C5147.58 608.824 5147.69 566.955 5134.81 741.393Z" fill="white"/>
<path d="M5298.84 742.375C5304.09 815.641 5315.32 874.535 5323.9 873.919C5332.49 873.303 5335.19 813.409 5329.93 740.143C5326.88 612.167 5313.45 607.983 5304.86 608.6C5296.27 609.216 5291.56 567.614 5298.84 742.375Z" fill="white"/>
<path d="M5248.51 144.185C5245.07 174.365 5252.22 209.405 5282.59 212.869C5312.97 216.333 5340.38 194.676 5343.82 164.496C5347.26 134.316 5325.43 107.042 5295.06 103.578C5264.68 100.114 5251.95 114.005 5248.51 144.185Z" fill="white"/>
<path d="M5171.13 457.648C5171.13 516.817 5267.25 502.47 5303.21 502.47C5339.17 502.47 5344.13 392.191 5344.13 333.022C5344.13 273.854 5332.97 155.922 5287.09 217.142C5223.84 239.553 5182.92 393.149 5171.13 457.648Z" fill="white"/>
<path d="M5154.63 573.868C5154.63 596.975 5172.84 604.26 5214.23 590.789C5231.22 585.258 5249.93 587.009 5264.73 597.02C5302.27 622.406 5321.63 629.67 5321.63 606.5C5321.63 578.886 5291.91 523.868 5236.13 523.868C5180.35 523.868 5154.63 546.253 5154.63 573.868Z" fill="white"/>
<path d="M4816.5 527.623C4804.09 584.773 4785.55 641.686 4800.9 650.464C4820.47 659.024 4866.75 620.698 4895.78 569.926C4948.51 465.598 4917.11 467.145 4901.75 458.367C4886.4 449.589 4849.39 376.157 4816.5 527.623Z" fill="white"/>
<path d="M4915.97 602.807C4928.71 662.512 4944.86 710.332 4967.5 705.5C4990.14 700.668 5015.38 643.846 5002.63 584.142C4972.22 441.641 5041.13 386.141 4933.89 485.954C4911.25 490.786 4899.46 457.751 4915.97 602.807Z" fill="white"/>
<path d="M4779.7 750.366C4772.57 823.473 4773.73 883.416 4782.3 884.251C4790.87 885.087 4803.59 826.499 4810.72 753.391C4846.58 611.675 4858.91 584.165 4808.12 619.506C4799.55 618.67 4801.9 576.867 4779.7 750.366Z" fill="white"/>
<path d="M4952.63 753.314C4952.47 826.769 4959.32 886.33 4967.93 886.349C4976.54 886.368 4983.64 826.836 4983.8 753.382C4990.2 625.529 4977.11 620.366 4968.51 620.347C4959.9 620.329 4958.27 578.492 4952.63 753.314Z" fill="white"/>
<path d="M4913.09 149.787C4905.4 179.172 4907.5 214.873 4937.08 222.614C4966.65 230.355 4996.86 212.808 5004.55 183.422C5012.24 154.036 4994.51 123.939 4964.93 116.199C4935.36 108.458 4920.78 120.401 4913.09 149.787Z" fill="white"/>
<path d="M4830.13 469.79C4830.13 528.958 4926.25 514.611 4962.21 514.611C4998.17 514.611 5003.13 404.333 5003.13 345.164C5010 274 4991.97 168.063 4946.09 229.283C4882.84 251.694 4841.92 405.29 4830.13 469.79Z" fill="white"/>
<path d="M4813.63 586.009C4813.63 609.116 4831.84 616.401 4873.23 602.93C4890.22 597.4 4908.93 599.151 4923.73 609.161C4961.27 634.547 4980.63 641.812 4980.63 618.641C4980.63 591.027 4950.91 536.009 4895.13 536.009C4839.35 536.009 4813.63 558.395 4813.63 586.009Z" fill="white"/>
<path d="M4431.62 527.97C4419.21 585.12 4400.67 642.034 4416.03 650.812C4435.6 659.371 4481.88 621.046 4510.9 570.274C4563.63 465.946 4532.24 467.493 4516.88 458.715C4501.53 449.937 4464.52 376.504 4431.62 527.97Z" fill="white"/>
<path d="M4531.09 603.155C4543.84 662.859 4559.99 710.68 4582.63 705.848C4605.27 701.015 4630.5 644.193 4617.76 584.489C4587.35 441.989 4656.26 386.489 4549.02 486.301C4526.38 491.134 4514.59 458.098 4531.09 603.155Z" fill="white"/>
<path d="M4384.22 748.513C4370.91 820.752 4364.83 875.276 4373.29 876.836C4381.76 878.395 4401.57 826.399 4414.88 754.16C4462.62 615.997 4477.25 589.634 4423.64 620.536C4415.18 618.977 4421.06 577.524 4384.22 748.513Z" fill="white"/>
<path d="M4567.76 753.662C4567.6 827.116 4574.45 886.677 4583.06 886.696C4591.66 886.715 4598.77 827.183 4598.93 753.729C4605.33 625.876 4592.24 620.713 4583.63 620.695C4575.02 620.676 4573.39 578.839 4567.76 753.662Z" fill="white"/>
<path d="M4533.1 144.938C4521.94 173.187 4519.74 208.882 4548.17 220.119C4576.6 231.356 4608.7 217.565 4619.87 189.316C4631.03 161.067 4617.04 129.057 4588.6 117.82C4560.17 106.582 4544.27 116.688 4533.1 144.938Z" fill="white"/>
<path d="M4445.26 470.137C4445.26 529.306 4541.38 514.959 4577.34 514.959C4613.29 514.959 4618.26 404.68 4618.26 345.511C4625.13 274.347 4607.1 168.411 4561.21 229.631C4497.97 252.042 4457.04 405.638 4445.26 470.137Z" fill="white"/>
<path d="M4428.76 586.357C4428.76 609.464 4446.97 616.749 4488.36 603.278C4505.35 597.747 4524.06 599.498 4538.86 609.509C4576.4 634.895 4595.76 642.159 4595.76 618.989C4595.76 591.375 4566.04 536.357 4510.26 536.357C4454.48 536.357 4428.76 558.742 4428.76 586.357Z" fill="white"/>
<path d="M4035.44 534.423C4014.66 589.089 3987.86 642.609 4001.73 653.574C4019.81 664.952 4078.19 634.394 4120 593.5C4211.5 504 4143.93 489.595 4130.06 478.629C4116.18 467.663 4090.52 389.541 4035.44 534.423Z" fill="white"/>
<path d="M4137.5 602.5C4150.24 662.204 4174.99 714.169 4197.63 709.336C4220.27 704.504 4245.51 647.682 4232.76 587.978C4202.35 445.478 4271.26 389.978 4164.02 489.79C4141.38 494.623 4096.9 460.356 4137.5 602.5Z" fill="white"/>
<path d="M3960.02 747.805C3938.23 817.953 3925.72 871.369 3933.94 873.923C3942.16 876.476 3968 827.2 3989.79 757.052C4053.61 625.535 4071.26 601.094 4014.36 625.414C4006.14 622.86 4016.91 582.399 3960.02 747.805Z" fill="white"/>
<path d="M4195.54 761.211C4211.34 832.947 4230.96 889.599 4239.37 887.748C4247.77 885.897 4241.78 826.243 4225.99 754.507C4204.46 628.317 4190.57 626.119 4182.16 627.97C4173.76 629.821 4163.08 589.337 4195.54 761.211Z" fill="white"/>
<path d="M4157.32 140.571C4140.68 165.987 4131.33 200.505 4156.91 217.246C4182.49 233.986 4216.71 226.952 4233.35 201.535C4249.98 176.118 4242.73 141.943 4217.15 125.203C4191.57 108.463 4173.95 115.154 4157.32 140.571Z" fill="white"/>
<path d="M4060.26 473.626C4060.26 532.795 4156.38 518.448 4192.34 518.448C4228.3 518.448 4233.26 408.169 4233.26 349C4240.13 277.836 4222.1 171.9 4176.22 233.12C4112.97 255.531 4072.05 409.127 4060.26 473.626Z" fill="white"/>
<path d="M4043.76 589.845C4043.76 612.953 4061.97 620.238 4103.36 606.766C4120.35 601.236 4139.06 602.987 4153.86 612.997C4191.4 638.384 4210.76 645.648 4210.76 622.478C4210.76 594.864 4181.04 539.845 4125.26 539.845C4069.48 539.845 4043.76 562.231 4043.76 589.845Z" fill="white"/>
<path d="M3633.44 508.025C3612.66 562.691 3585.86 616.211 3599.73 627.176C3617.81 638.554 3676.19 607.996 3718 567.102C3809.5 477.602 3741.93 463.197 3728.06 452.231C3714.18 441.265 3688.52 363.143 3633.44 508.025Z" fill="white"/>
<path d="M3735.5 576.102C3748.24 635.806 3772.99 687.771 3795.63 682.938C3818.27 678.106 3843.51 621.284 3830.76 561.58C3800.35 419.08 3869.26 363.58 3762.02 463.392C3739.38 468.225 3694.9 433.958 3735.5 576.102Z" fill="white"/>
<path d="M3558.02 721.407C3536.23 791.555 3523.72 844.971 3531.94 847.525C3540.16 850.078 3566 800.802 3587.79 730.654C3651.61 599.137 3669.26 574.697 3612.36 599.016C3604.14 596.462 3614.91 556.002 3558.02 721.407Z" fill="white"/>
<path d="M3800.85 741.982C3813.6 814.321 3830.81 871.752 3839.29 870.258C3847.76 868.764 3844.3 808.91 3831.55 736.571C3815.38 609.583 3801.59 606.8 3793.11 608.295C3784.63 609.789 3775.67 568.89 3800.85 741.982Z" fill="white"/>
<path d="M3755.32 114.173C3738.68 139.589 3729.33 174.107 3754.91 190.848C3780.49 207.588 3814.71 200.554 3831.35 175.137C3847.98 149.72 3840.73 115.545 3815.15 98.8051C3789.57 82.065 3771.95 88.7558 3755.32 114.173Z" fill="white"/>
<path d="M3658.26 447.228C3658.26 506.397 3754.38 492.05 3790.34 492.05C3826.3 492.05 3831.26 381.771 3831.26 322.602C3838.13 251.438 3820.1 145.502 3774.22 206.722C3710.97 229.133 3670.05 382.729 3658.26 447.228Z" fill="white"/>
<path d="M3641.76 563.448C3641.76 586.555 3659.97 593.84 3701.36 580.369C3718.35 574.838 3737.06 576.589 3751.86 586.599C3789.4 611.986 3808.76 619.25 3808.76 596.08C3808.76 568.466 3779.04 513.448 3723.26 513.448C3667.48 513.448 3641.76 535.833 3641.76 563.448Z" fill="white"/>
<path d="M3231.44 508.025C3210.66 562.691 3183.86 616.211 3197.73 627.176C3215.81 638.554 3274.19 607.996 3316 567.102C3407.5 477.602 3339.93 463.197 3326.06 452.231C3312.18 441.265 3286.52 363.143 3231.44 508.025Z" fill="white"/>
<path d="M3333.5 576.102C3346.24 635.806 3370.99 687.771 3393.63 682.938C3416.27 678.106 3441.51 621.284 3428.76 561.58C3398.35 419.08 3467.26 363.58 3360.02 463.392C3337.38 468.225 3292.9 433.958 3333.5 576.102Z" fill="white"/>
<path d="M3156.02 721.407C3134.23 791.555 3121.72 844.971 3129.94 847.525C3138.16 850.078 3164 800.802 3185.79 730.654C3249.61 599.137 3267.26 574.697 3210.36 599.016C3202.14 596.462 3212.91 556.002 3156.02 721.407Z" fill="white"/>
<path d="M3408.09 738.226C3425.78 809.518 3446.9 865.631 3455.25 863.558C3463.61 861.484 3456.04 802.01 3438.34 730.718C3413.48 605.142 3399.54 603.313 3391.18 605.386C3382.83 607.46 3371.08 567.273 3408.09 738.226Z" fill="white"/>
<path d="M3353.32 114.173C3336.68 139.589 3327.33 174.107 3352.91 190.848C3378.49 207.588 3412.71 200.554 3429.35 175.137C3445.98 149.72 3438.73 115.545 3413.15 98.8051C3387.57 82.065 3369.95 88.7558 3353.32 114.173Z" fill="white"/>
<path d="M3256.26 447.228C3256.26 506.397 3352.38 492.05 3388.34 492.05C3424.3 492.05 3429.26 381.771 3429.26 322.602C3436.13 251.438 3418.1 145.502 3372.22 206.722C3308.97 229.133 3268.05 382.729 3256.26 447.228Z" fill="white"/>
<path d="M3239.76 563.448C3239.76 586.555 3257.97 593.84 3299.36 580.369C3316.35 574.838 3335.06 576.589 3349.86 586.599C3387.4 611.986 3406.76 619.25 3406.76 596.08C3406.76 568.466 3377.04 513.448 3321.26 513.448C3265.48 513.448 3239.76 535.833 3239.76 563.448Z" fill="white"/>
<path d="M2792.44 502.025C2771.66 556.691 2744.86 610.211 2758.73 621.176C2776.81 632.554 2835.19 601.996 2877 561.102C2968.5 471.602 2900.93 457.197 2887.06 446.231C2873.18 435.265 2847.52 357.143 2792.44 502.025Z" fill="white"/>
<path d="M2894.5 570.102C2907.24 629.806 2931.99 681.771 2954.63 676.938C2977.27 672.106 3002.51 615.284 2989.76 555.58C2959.35 413.08 3028.26 357.58 2921.02 457.392C2898.38 462.225 2853.9 427.958 2894.5 570.102Z" fill="white"/>
<path d="M2717.02 715.407C2695.23 785.555 2682.72 838.971 2690.94 841.525C2699.16 844.078 2725 794.802 2746.79 724.654C2810.61 593.137 2828.26 568.697 2771.36 593.016C2763.14 590.462 2773.91 550.002 2717.02 715.407Z" fill="white"/>
<path d="M2959.85 735.982C2972.6 808.321 2989.81 865.752 2998.29 864.258C3006.76 862.764 3003.3 802.91 2990.55 730.571C2974.38 603.583 2960.59 600.8 2952.11 602.295C2943.63 603.789 2934.67 562.89 2959.85 735.982Z" fill="white"/>
<path d="M2914.32 108.173C2897.68 133.589 2888.33 168.107 2913.91 184.848C2939.49 201.588 2973.71 194.554 2990.35 169.137C3006.98 143.72 2999.73 109.545 2974.15 92.8051C2948.57 76.065 2930.95 82.7558 2914.32 108.173Z" fill="white"/>
<path d="M2817.26 441.228C2817.26 500.397 2913.38 486.05 2949.34 486.05C2985.3 486.05 2990.26 375.771 2990.26 316.602C2997.13 245.438 2979.1 139.502 2933.22 200.722C2869.97 223.133 2829.05 376.729 2817.26 441.228Z" fill="white"/>
<path d="M2800.76 557.448C2800.76 580.555 2818.97 587.84 2860.36 574.369C2877.35 568.838 2896.06 570.589 2910.86 580.599C2948.4 605.986 2967.76 613.25 2967.76 590.08C2967.76 562.466 2938.04 507.448 2882.26 507.448C2826.48 507.448 2800.76 529.833 2800.76 557.448Z" fill="white"/>
<path d="M2326.72 509.44C2312.41 566.145 2291.99 622.409 2307.04 631.694C2326.32 640.9 2380.76 603.786 2417.55 558.324C2498.07 458.828 2429.29 452.346 2414.24 443.062C2399.18 433.777 2364.64 359.154 2326.72 509.44Z" fill="white"/>
<path d="M2435.98 565.237C2455.55 623.063 2486.15 671.811 2508.08 664.389C2530.01 656.967 2548.49 597.604 2528.92 539.778C2482.2 401.76 2544.22 338.651 2449.26 450.214C2427.33 457.636 2379.19 428.752 2435.98 565.237Z" fill="white"/>
<path d="M2276.53 730.121C2263.01 802.321 2256.77 856.828 2265.23 858.412C2273.69 859.996 2293.65 808.058 2307.17 735.858C2355.32 597.834 2370.02 571.514 2316.32 602.26C2307.86 600.676 2313.87 559.241 2276.53 730.121Z" fill="white"/>
<path d="M2520.96 724.073C2549.74 791.651 2579.5 843.699 2587.42 840.326C2595.34 836.952 2578.42 779.434 2549.63 711.856C2505.15 591.821 2491.09 592.23 2483.17 595.603C2475.25 598.977 2457.27 561.165 2520.96 724.073Z" fill="white"/>
<path d="M2402.16 104.121C2388.58 131.294 2383.29 166.663 2410.63 180.327C2437.98 193.991 2471.16 183.041 2484.73 155.869C2498.31 128.696 2487.15 95.5913 2459.8 81.9269C2432.45 68.2626 2415.73 76.9488 2402.16 104.121Z" fill="white"/>
<path d="M2344.33 446.177C2351.19 504.947 2445 479.563 2480.71 475.398C2516.43 471.233 2508.59 361.121 2501.73 302.35C2500.31 230.87 2470.13 127.735 2431.65 193.858C2371.42 223.444 2348.56 380.747 2344.33 446.177Z" fill="white"/>
<path d="M2341.41 563.525C2344.08 586.477 2363.01 591.604 2402.56 573.429C2418.8 565.968 2437.58 565.54 2453.45 573.768C2493.67 594.635 2513.75 599.608 2511.06 576.594C2507.86 549.165 2471.97 497.96 2416.57 504.421C2361.16 510.883 2338.21 536.097 2341.41 563.525Z" fill="white"/>
<path d="M1853.5 493.157C1845.22 551.051 1830.82 609.149 1846.77 616.801C1866.9 623.933 1917.15 581.307 1948.96 532.234C2018.59 424.833 1949.51 425.609 1933.56 417.957C1917.62 410.304 1875.43 339.72 1853.5 493.157Z" fill="white"/>
<path d="M1950.16 531.291C1969.12 589.321 1999.2 638.389 2021.21 631.199C2043.21 624.009 2062.32 564.845 2043.36 506.815C1998.11 368.311 2060.79 305.861 1964.66 416.415C1942.65 423.605 1894.82 394.214 1950.16 531.291Z" fill="white"/>
<path d="M1826.75 717.889C1820.89 791.109 1820.41 845.97 1828.99 846.657C1837.57 847.344 1851.97 793.596 1857.83 720.376C1891.22 578.06 1903.08 550.341 1852.9 586.556C1844.32 585.869 1845.95 544.032 1826.75 717.889Z" fill="white"/>
<path d="M2071.63 688.828C2120.34 743.814 2165.04 783.762 2171.49 778.054C2177.93 772.347 2143.67 723.145 2094.97 668.159C2014.76 568.386 2001.56 573.226 1995.11 578.933C1988.67 584.641 1959.64 554.468 2071.63 688.828Z" fill="white"/>
<path d="M1885.96 82.1581C1875.31 110.606 1873.76 146.335 1902.39 157.052C1931.02 167.77 1962.86 153.396 1973.51 124.949C1984.16 96.5007 1969.59 64.751 1940.95 54.0337C1912.32 43.3163 1896.61 53.7103 1885.96 82.1581Z" fill="white"/>
<path d="M1864.37 428.394C1877.36 486.12 1967.98 451.026 2003.06 443.134C2038.14 435.242 2018.79 326.562 2005.8 268.836C1996.88 197.901 1956.04 98.5039 1924.71 168.302C1867.92 204.049 1861.71 362.882 1864.37 428.394Z" fill="white"/>
<path d="M1873.78 545.401C1878.85 567.945 1898.21 571.057 1935.64 548.829C1951 539.704 1969.64 537.307 1986.28 543.824C2028.47 560.351 2048.96 563.189 2043.87 540.584C2037.81 513.643 1996.74 466.489 1942.32 478.732C1887.9 490.976 1867.72 518.46 1873.78 545.401Z" fill="white"/>
<path d="M1365.21 502.775C1364.97 561.257 1358.69 620.783 1375.53 626.171C1396.46 630.467 1440.37 581.338 1465.14 528.357C1519.34 412.405 1451.02 422.67 1434.17 417.283C1417.33 411.895 1365.84 347.779 1365.21 502.775Z" fill="white"/>
<path d="M1456.53 533.549C1473.56 592.172 1502.01 642.206 1524.24 635.745C1546.48 629.284 1567.52 570.782 1550.49 512.158C1509.82 372.238 1574.53 311.888 1474.81 419.213C1452.57 425.674 1405.73 394.722 1456.53 533.549Z" fill="white"/>
<path d="M1348.09 721.9C1342.23 795.12 1341.74 849.981 1350.32 850.668C1358.9 851.355 1373.3 797.607 1379.16 724.387C1412.56 582.071 1424.42 554.352 1374.24 590.567C1365.66 589.88 1367.28 548.043 1348.09 721.9Z" fill="white"/>
<path d="M1588.35 694.552C1646 740.066 1697.06 771.485 1702.4 764.729C1707.73 757.972 1665.32 715.599 1607.66 670.085C1511.09 586.053 1498.95 593.151 1493.61 599.908C1488.28 606.664 1454.38 582.095 1588.35 694.552Z" fill="white"/>
<path d="M1400.3 86.1691C1389.65 114.617 1388.1 150.346 1416.73 161.063C1445.36 171.781 1477.2 157.407 1487.85 128.96C1498.5 100.512 1483.92 68.762 1455.29 58.0446C1426.66 47.3273 1410.94 57.7213 1400.3 86.1691Z" fill="white"/>
<path d="M1378.71 432.405C1391.7 490.131 1482.32 455.037 1517.4 447.145C1552.48 439.253 1533.12 330.573 1520.14 272.847C1511.22 201.912 1470.38 102.515 1439.05 172.313C1382.26 208.06 1376.05 366.893 1378.71 432.405Z" fill="white"/>
<path d="M1388.12 549.412C1393.19 571.956 1412.55 575.068 1449.98 552.84C1465.34 543.715 1483.98 541.318 1500.61 547.835C1542.81 564.362 1563.3 567.2 1558.21 544.595C1552.15 517.654 1511.08 470.5 1456.66 482.743C1402.24 494.987 1382.06 522.471 1388.12 549.412Z" fill="white"/>
<path d="M910.536 508.205C910.33 566.687 904.903 626.214 919.461 631.601C937.543 635.898 975.493 586.768 996.895 533.788C1043.73 417.835 984.694 428.1 970.135 422.713C955.577 417.325 911.081 353.21 910.536 508.205Z" fill="white"/>
<path d="M989.455 538.979C1004.18 597.602 1028.76 647.636 1047.98 641.175C1067.19 634.714 1085.38 576.212 1070.66 517.589C1035.51 377.669 1091.43 317.319 1005.25 424.643C986.039 431.104 945.559 400.153 989.455 538.979Z" fill="white"/>
<path d="M907.54 730.512C911.095 803.881 917.632 858.353 926.23 857.936C934.828 857.52 942.231 802.372 938.676 729.003C953.583 583.584 961.798 554.575 916.67 596.913C908.072 597.329 904.327 555.629 907.54 730.512Z" fill="white"/>
<path d="M1103.37 699.982C1153.2 745.496 1197.33 776.915 1201.94 770.159C1206.55 763.403 1169.89 721.029 1120.07 675.515C1036.61 591.484 1026.11 598.582 1021.5 605.338C1016.9 612.094 987.597 587.525 1103.37 699.982Z" fill="white"/>
<path d="M952.424 91.5983C941.775 120.046 940.227 155.775 968.858 166.493C997.488 177.21 1029.33 162.837 1039.98 134.389C1050.63 105.941 1036.05 74.1912 1007.42 63.4738C978.79 52.7565 963.073 63.1505 952.424 91.5983Z" fill="white"/>
<path d="M922.204 437.836C933.428 495.562 1011.75 460.468 1042.06 452.575C1072.38 444.683 1055.65 336.003 1044.43 278.277C1036.72 207.342 1001.42 107.945 974.348 177.744C925.274 213.49 919.903 372.323 922.204 437.836Z" fill="white"/>
<path d="M930.337 554.843C934.436 575.924 949.333 580.013 977.695 562.278C994.914 551.512 1015.54 548.076 1033.27 555.808C1065.86 570.024 1081.49 571.416 1077.33 550.025C1072.09 523.084 1036.6 475.931 989.568 488.174C942.538 500.417 925.1 527.902 930.337 554.843Z" fill="white"/>
<path d="M447.683 491.008C447.477 549.49 442.05 609.017 456.608 614.404C474.69 618.701 512.64 569.571 534.042 516.591C580.881 400.639 521.841 410.904 507.282 405.516C492.723 400.128 448.228 336.013 447.683 491.008Z" fill="white"/>
<path d="M516.531 513.744C521.385 573.993 537.381 627.396 557.396 624.192C577.411 620.988 605.001 566.288 600.147 506.039C588.563 362.239 613.647 319.803 550.968 403.58C530.953 406.783 496.132 369.579 516.531 513.744Z" fill="white"/>
<path d="M444.687 713.315C448.242 786.684 474.553 836.718 483.15 836.301C491.748 835.885 479.378 785.175 475.822 711.806C490.73 566.387 498.945 537.379 453.817 579.716C445.219 580.132 441.474 538.432 444.687 713.315Z" fill="white"/>
<path d="M629.521 690.785C679.346 736.299 723.474 767.718 728.083 760.962C732.692 754.206 696.038 711.832 646.213 666.318C562.756 582.287 552.261 589.385 547.652 596.141C543.042 602.897 513.744 578.328 629.521 690.785Z" fill="white"/>
<path d="M514.365 71.5341C500.915 98.7696 495.789 134.163 523.2 147.7C550.61 161.236 583.734 150.131 597.184 122.896C610.635 95.66 599.318 62.6077 571.907 49.0711C544.497 35.5345 527.816 44.2986 514.365 71.5341Z" fill="white"/>
<path d="M449.551 412.99C454.924 471.551 536.368 444.495 567.324 439.685C598.28 434.875 592.542 325.065 587.168 266.504C586.617 195.153 561.477 92.716 527.534 159.445C475.12 190.086 453.836 347.578 449.551 412.99Z" fill="white"/>
<path d="M83.8037 482C74.4679 539.732 59.0006 597.556 74.8037 605.5C94.8037 613 138.967 572.252 165.233 520C212.305 413 181.036 416.225 165.233 408.281C149.43 400.337 108.547 328.991 83.8037 482Z" fill="white"/>
<path d="M181.137 555.666C193.879 615.37 222.563 659.853 245.205 655.02C267.846 650.188 280.547 596.704 267.805 537C237.392 394.5 306.304 339 199.061 438.812C176.419 443.645 164.632 410.609 181.137 555.666Z" fill="white"/>
<path d="M39.9376 696.151C17.8806 766.216 6.65598 825.11 14.8666 827.695C23.0773 830.279 47.6141 775.576 69.6711 705.512C133.986 574.239 151.733 549.866 94.7421 573.968C86.5314 571.384 97.4503 530.964 39.9376 696.151Z" fill="white"/>
<path d="M240.744 702.226C257.112 773.834 277.183 830.328 285.575 828.41C293.966 826.492 287.5 766.887 271.132 695.28C248.604 569.265 234.693 567.178 226.301 569.096C217.91 571.014 206.909 530.617 240.744 702.226Z" fill="white"/>
<path d="M171.305 114.62C171.305 144.996 182.381 179 212.951 179C243.522 179 268.305 154.376 268.305 124C268.305 93.6243 243.522 69 212.951 69C182.381 69 171.305 84.2445 171.305 114.62Z" fill="white"/>
<path d="M95.3047 422.648C95.3047 481.817 191.422 467.47 227.38 467.47C263.338 467.47 268.305 357.191 268.305 298.022C268.305 238.854 257.143 120.922 211.258 182.142C148.011 204.553 107.086 358.149 95.3047 422.648Z" fill="white"/>
<path d="M78.8047 538.868C78.8047 561.975 97.01 569.26 138.401 555.789C155.393 550.258 174.1 552.009 188.903 562.02C226.444 587.406 245.805 594.67 245.805 571.5C245.805 543.886 216.085 488.868 160.305 488.868C104.524 488.868 78.8047 511.253 78.8047 538.868Z" fill="white"/>
</svg>
