<svg width="448" height="832" viewBox="0 0 448 832" fill="none" xmlns="http://www.w3.org/2000/svg">
<path d="M162.72 457.44C148.412 514.145 127.987 570.409 143.042 579.694C162.316 588.9 216.764 551.786 253.554 506.324C334.071 406.828 265.291 400.346 250.237 391.062C235.182 381.777 200.642 307.154 162.72 457.44Z" fill="white"/>
<path d="M271.979 513.237C291.551 571.063 322.149 619.811 344.078 612.389C366.008 604.967 384.491 545.604 364.919 487.778C318.204 349.76 380.224 286.651 285.264 398.214C263.335 405.636 215.191 376.752 271.979 513.237Z" fill="white"/>
<path d="M112.528 678.121C99.0102 750.321 92.7653 804.828 101.226 806.412C109.687 807.996 129.65 756.058 143.167 683.858C191.318 545.834 206.022 519.514 152.323 550.26C143.862 548.676 149.867 507.241 112.528 678.121Z" fill="white"/>
<path d="M356.957 672.073C385.744 739.651 415.501 791.699 423.421 788.326C431.34 784.952 414.423 727.434 385.635 659.856C341.151 539.821 327.09 540.23 319.171 543.603C311.252 546.977 293.272 509.165 356.957 672.073Z" fill="white"/>
<path d="M238.156 52.1212C224.579 79.2937 219.288 114.663 246.635 128.327C273.982 141.991 307.157 131.041 320.734 103.869C334.311 76.6961 323.149 43.5913 295.802 29.9269C268.455 16.2626 251.733 24.9488 238.156 52.1212Z" fill="white"/>
<path d="M180.334 394.177C187.188 452.947 280.996 427.563 316.712 423.398C352.428 419.233 344.587 309.121 337.734 250.35C336.31 178.87 306.133 75.7351 267.648 141.858C207.422 171.444 184.565 328.747 180.334 394.177Z" fill="white"/>
<path d="M177.407 511.525C180.084 534.477 199.01 539.604 238.562 521.429C254.799 513.968 273.583 513.54 289.446 521.768C329.674 542.635 349.747 547.608 347.063 524.594C343.864 497.165 307.972 445.96 252.567 452.421C197.162 458.883 174.208 484.097 177.407 511.525Z" fill="white"/>
</svg>
