<svg width="297" height="770" viewBox="0 0 297 770" fill="none" xmlns="http://www.w3.org/2000/svg">
<path d="M65.6331 413C56.2973 470.732 40.83 528.556 56.6331 536.5C76.6331 544 120.797 503.252 147.062 451C194.134 344 162.865 347.225 147.062 339.281C131.259 331.337 90.3759 259.991 65.6331 413Z" fill="white"/>
<path d="M162.967 486.666C175.709 546.37 204.393 590.853 227.035 586.02C249.676 581.188 262.377 527.704 249.635 468C219.221 325.5 288.134 270 180.891 369.812C158.249 374.645 146.462 341.609 162.967 486.666Z" fill="white"/>
<path d="M72.5741 640.226C88.9421 711.833 109.014 768.328 117.405 766.409C125.797 764.491 119.33 704.887 102.962 633.28C92.134 487.5 95.134 457.5 58.1314 507.096C49.7399 509.014 38.7392 468.616 72.5741 640.226Z" fill="white"/>
<path d="M222.574 633.226C238.942 704.834 259.014 761.328 267.405 759.41C275.797 757.492 269.33 697.887 252.962 626.28C230.434 500.265 216.523 498.178 208.131 500.096C199.74 502.014 188.739 461.617 222.574 633.226Z" fill="white"/>
<path d="M153.134 45.6202C153.134 75.9958 164.21 110 194.781 110C225.352 110 250.134 85.3757 250.134 55C250.134 24.6243 225.352 0 194.781 0C164.21 0 153.134 15.2445 153.134 45.6202Z" fill="white"/>
<path d="M77.134 353.648C77.134 412.817 173.251 398.47 209.209 398.47C245.167 398.47 250.134 288.191 250.134 229.022C250.134 169.854 238.973 51.922 193.087 113.142C129.84 135.553 88.9154 289.149 77.134 353.648Z" fill="white"/>
<path d="M60.6341 469.868C60.6341 492.975 78.8393 500.26 120.23 486.789C137.223 481.258 155.929 483.009 170.732 493.02C208.273 518.406 227.634 525.67 227.634 502.5C227.634 474.886 197.915 419.868 142.134 419.868C86.3533 419.868 60.6341 442.253 60.6341 469.868Z" fill="white"/>
</svg>
