<svg width="358" height="792" viewBox="0 0 358 792" fill="none" xmlns="http://www.w3.org/2000/svg">
<path d="M113.44 432.025C92.66 486.691 65.8556 540.211 79.7333 551.176C97.8112 562.554 156.192 531.996 198 491.102C289.5 401.602 221.934 387.197 208.057 376.231C194.179 365.265 168.515 287.143 113.44 432.025Z" fill="white"/>
<path d="M215.5 500.102C228.242 559.806 252.988 611.771 275.629 606.938C298.271 602.106 323.506 545.284 310.764 485.58C280.351 343.08 349.263 287.58 242.02 387.392C219.378 392.225 174.904 357.958 215.5 500.102Z" fill="white"/>
<path d="M38.023 645.407C16.2334 715.555 3.71687 768.971 11.9373 771.525C20.1578 774.078 46.0023 724.802 67.7919 654.654C131.606 523.137 149.26 498.697 92.3611 523.016C84.1406 520.462 94.9052 480.002 38.023 645.407Z" fill="white"/>
<path d="M290.09 662.226C307.782 733.518 328.896 789.631 337.251 787.558C345.605 785.484 338.036 726.01 320.344 654.718C295.484 529.142 281.537 527.313 273.182 529.386C264.828 531.46 253.081 491.273 290.09 662.226Z" fill="white"/>
<path d="M235.318 38.1726C218.684 63.5894 209.332 98.1075 234.912 114.848C260.492 131.588 294.713 124.554 311.346 99.137C327.979 73.7201 320.727 39.5452 295.147 22.8051C269.566 6.065 251.951 12.7558 235.318 38.1726Z" fill="white"/>
<path d="M138.264 371.228C138.264 430.397 234.381 416.05 270.339 416.05C306.297 416.05 311.264 305.771 311.264 246.602C318.13 175.438 300.102 69.5018 254.217 130.722C190.97 153.133 150.045 306.729 138.264 371.228Z" fill="white"/>
<path d="M121.764 487.448C121.764 510.555 139.969 517.84 181.36 504.369C198.352 498.838 217.059 500.589 231.862 510.599C269.402 535.986 288.764 543.25 288.764 520.08C288.764 492.466 259.044 437.448 203.264 437.448C147.483 437.448 121.764 459.833 121.764 487.448Z" fill="white"/>
</svg>
