<svg width="540" height="851" viewBox="0 0 540 851" fill="none" xmlns="http://www.w3.org/2000/svg">
<path d="M205.5 479.157C197.225 537.051 182.821 595.149 198.767 602.802C218.901 609.933 269.151 567.307 300.964 518.234C370.589 410.833 301.509 411.609 285.563 403.957C269.617 396.305 227.432 325.72 205.5 479.157Z" fill="white"/>
<path d="M302.161 517.291C321.121 575.321 351.202 624.39 373.209 617.2C395.215 610.009 414.325 550.845 395.365 492.815C350.112 354.311 412.795 291.862 316.661 402.415C294.655 409.605 246.819 380.214 302.161 517.291Z" fill="white"/>
<path d="M178.756 703.889C172.894 777.109 172.407 831.97 180.988 832.657C189.568 833.344 203.967 779.597 209.828 706.377C243.22 564.06 255.079 536.341 204.906 572.556C196.325 571.869 197.947 530.032 178.756 703.889Z" fill="white"/>
<path d="M423.635 674.828C472.339 729.814 517.045 769.762 523.489 764.055C529.933 758.347 495.673 709.145 446.969 654.16C366.766 554.386 353.558 559.226 347.115 564.934C340.671 570.641 311.644 540.468 423.635 674.828Z" fill="white"/>
<path d="M237.959 68.1584C227.31 96.6062 225.762 132.335 254.393 143.053C283.023 153.77 314.866 139.397 325.515 110.949C336.164 82.501 321.587 50.7513 292.956 40.0339C264.326 29.3165 248.608 39.7105 237.959 68.1584Z" fill="white"/>
<path d="M216.373 414.394C229.36 472.12 319.984 437.027 355.065 429.134C390.146 421.242 370.787 312.562 357.801 254.836C348.88 183.901 308.04 84.5042 276.711 154.303C219.925 190.049 213.71 348.882 216.373 414.394Z" fill="white"/>
<path d="M225.784 531.402C230.856 553.945 250.216 557.057 287.641 534.829C303.005 525.704 321.64 523.307 338.279 529.824C380.476 546.351 400.96 549.189 395.874 526.584C389.813 499.643 348.743 452.489 294.322 464.733C239.902 476.976 219.723 504.461 225.784 531.402Z" fill="white"/>
</svg>
