<svg width="479" height="837" viewBox="0 0 479 837" fill="none" xmlns="http://www.w3.org/2000/svg">
<path d="M168.411 477.775C168.205 536.257 162.778 595.783 177.336 601.171C195.418 605.467 233.368 556.338 254.77 503.357C301.609 387.405 242.569 397.67 228.01 392.283C213.452 386.895 168.956 322.779 168.411 477.775Z" fill="white"/>
<path d="M247.33 508.549C262.054 567.172 286.638 617.206 305.851 610.745C325.063 604.284 343.254 545.782 328.53 487.158C293.388 347.238 349.308 286.888 263.126 394.213C243.914 400.674 203.434 369.722 247.33 508.549Z" fill="white"/>
<path d="M165.415 700.082C168.97 773.45 175.507 827.922 184.105 827.506C192.703 827.089 200.106 771.941 196.551 698.573C211.458 553.154 219.673 524.145 174.545 566.482C165.947 566.899 162.202 525.198 165.415 700.082Z" fill="white"/>
<path d="M361.249 669.551C411.074 715.066 455.202 746.485 459.811 739.729C464.42 732.972 427.766 690.599 377.941 645.085C294.484 561.053 283.989 568.151 279.38 574.907C274.77 581.664 245.472 557.095 361.249 669.551Z" fill="white"/>
<path d="M210.299 61.1679C199.65 89.6157 198.102 125.345 226.733 136.062C255.363 146.78 287.206 132.406 297.855 103.958C308.504 75.5105 293.927 43.7608 265.296 33.0434C236.665 22.326 220.948 32.72 210.299 61.1679Z" fill="white"/>
<path d="M180.079 407.405C191.303 465.131 269.62 430.037 299.937 422.145C330.254 414.253 313.524 305.573 302.301 247.847C294.592 176.912 259.298 77.5149 232.223 147.313C183.149 183.06 177.778 341.893 180.079 407.405Z" fill="white"/>
<path d="M188.212 524.412C192.311 545.493 207.208 549.582 235.57 531.848C252.789 521.082 273.418 517.646 291.144 525.378C323.735 539.594 339.363 540.986 335.204 519.595C329.966 492.654 294.473 445.5 247.443 457.743C200.413 469.987 182.975 497.471 188.212 524.412Z" fill="white"/>
</svg>
