<svg width="305" height="783" viewBox="0 0 305 783" fill="none" xmlns="http://www.w3.org/2000/svg">
<path d="M71.4977 422.623C59.0857 479.773 40.5461 536.686 55.9014 545.464C75.4714 554.024 121.752 515.698 150.776 464.926C203.507 360.598 172.11 362.145 156.755 353.367C141.4 344.589 104.393 271.157 71.4977 422.623Z" fill="white"/>
<path d="M170.967 497.807C183.709 557.512 199.859 605.332 222.5 600.5C245.141 595.668 270.377 538.846 257.635 479.142C227.221 336.641 296.134 281.141 188.891 380.954C166.249 385.786 154.462 352.751 170.967 497.807Z" fill="white"/>
<path d="M34.699 645.366C27.5695 718.473 28.7349 778.416 37.3022 779.251C45.8695 780.087 58.5943 721.499 65.7238 648.391C101.577 506.675 113.914 479.165 63.1206 514.506C54.5534 513.67 56.8996 471.867 34.699 645.366Z" fill="white"/>
<path d="M207.632 648.314C207.473 721.769 214.322 781.33 222.93 781.349C231.538 781.368 238.645 721.836 238.804 648.382C245.199 520.529 232.114 515.366 223.506 515.347C214.898 515.329 213.266 473.492 207.632 648.314Z" fill="white"/>
<path d="M168.09 44.7866C160.398 74.1723 162.503 109.873 192.077 117.614C221.652 125.355 251.862 107.808 259.553 78.4222C267.245 49.0365 249.505 18.9394 219.931 11.1986C190.356 3.45771 175.781 15.4008 168.09 44.7866Z" fill="white"/>
<path d="M85.1338 364.79C85.1338 423.958 181.251 409.611 217.209 409.611C253.167 409.611 258.134 299.333 258.134 240.164C265 169 246.972 63.0634 201.087 124.283C137.84 146.694 96.9151 300.29 85.1338 364.79Z" fill="white"/>
<path d="M68.6338 481.009C68.6338 504.116 86.8391 511.401 128.23 497.93C145.222 492.4 163.929 494.151 178.732 504.161C216.273 529.547 235.634 536.812 235.634 513.641C235.634 486.027 205.915 431.009 150.134 431.009C94.3531 431.009 68.6338 453.395 68.6338 481.009Z" fill="white"/>
</svg>
