<svg width="297" height="779" viewBox="0 0 297 779" fill="none" xmlns="http://www.w3.org/2000/svg">
<path d="M65.6331 419C56.2973 476.732 40.83 534.556 56.6331 542.5C76.6331 550 120.797 509.252 147.062 457C194.134 350 162.865 353.225 147.062 345.281C131.259 337.337 90.3759 265.991 65.6331 419Z" fill="white"/>
<path d="M162.967 492.666C175.709 552.37 204.393 596.853 227.035 592.02C249.676 587.188 262.377 533.704 249.635 474C219.221 331.5 288.134 276 180.891 375.812C158.249 380.645 146.462 347.609 162.967 492.666Z" fill="white"/>
<path d="M40.8067 643.393C37.5997 716.777 41.9714 776.572 50.5711 776.948C59.1708 777.323 68.742 718.138 71.949 644.754C100.166 501.322 111.014 473.192 62.1846 511.199C53.5849 510.824 53.6907 468.955 40.8067 643.393Z" fill="white"/>
<path d="M204.836 644.375C210.094 717.641 221.318 776.535 229.903 775.919C238.489 775.303 241.186 715.409 235.928 642.143C232.876 514.167 219.445 509.983 210.86 510.6C202.274 511.216 197.561 469.614 204.836 644.375Z" fill="white"/>
<path d="M154.509 46.185C151.067 76.365 158.219 111.405 188.593 114.869C218.967 118.333 246.38 96.6757 249.822 66.4956C253.264 36.3156 231.431 9.04171 201.057 5.57768C170.683 2.11366 157.951 16.0049 154.509 46.185Z" fill="white"/>
<path d="M77.134 359.648C77.134 418.817 173.251 404.47 209.209 404.47C245.167 404.47 250.134 294.191 250.134 235.022C250.134 175.854 238.973 57.922 193.087 119.142C129.84 141.553 88.9154 295.149 77.134 359.648Z" fill="white"/>
<path d="M60.6341 475.868C60.6341 498.975 78.8393 506.26 120.23 492.789C137.223 487.258 155.929 489.009 170.732 499.02C208.273 524.406 227.634 531.67 227.634 508.5C227.634 480.886 197.915 425.868 142.134 425.868C86.3533 425.868 60.6341 448.253 60.6341 475.868Z" fill="white"/>
</svg>
